<svg width="291" height="308" viewBox="0 0 291 308" fill="none" xmlns="http://www.w3.org/2000/svg">
<path d="M1.47276e-05 109.163C6.36986e-06 99.323 7.46311 91.0877 17.2553 90.1219L269.989 65.1962C281.244 64.0862 291 72.9278 291 84.237V257.325C291 267.892 282.434 276.458 271.867 276.458H19.1333C8.56633 276.458 0.000149552 267.892 0.000140576 257.325L1.47276e-05 109.163Z" fill="url(#paint0_linear_304_132)" fill-opacity="0.6"/>
<path d="M270.083 66.1484C280.775 65.094 290.043 73.4936 290.043 84.2373V257.325C290.043 267.364 281.906 275.502 271.867 275.502H19.1328C9.09444 275.502 0.95704 267.364 0.957031 257.325V109.163C0.957023 99.8154 8.04707 91.9917 17.3496 91.0742L270.083 66.1484Z" stroke="url(#paint1_linear_304_132)" stroke-opacity="0.2" stroke-width="1.91331" style="mix-blend-mode:overlay"/>
<path d="M25.5965 236.016C24.7923 236.016 24.0502 235.829 23.3703 235.456C22.6988 235.075 22.164 234.548 21.766 233.877C21.3763 233.197 21.1815 232.434 21.1815 231.589C21.1815 230.743 21.3763 229.984 21.766 229.313C22.164 228.641 22.6988 228.119 23.3703 227.746C24.0502 227.364 24.7923 227.174 25.5965 227.174C26.409 227.174 27.151 227.364 27.8226 227.746C28.5025 228.119 29.0373 228.641 29.4269 229.313C29.8166 229.984 30.0114 230.743 30.0114 231.589C30.0114 232.434 29.8166 233.197 29.4269 233.877C29.0373 234.548 28.5025 235.075 27.8226 235.456C27.151 235.829 26.409 236.016 25.5965 236.016ZM25.5965 234.785C26.1686 234.785 26.6785 234.656 27.1262 234.399C27.5739 234.134 27.9221 233.761 28.1708 233.28C28.4279 232.791 28.5564 232.227 28.5564 231.589C28.5564 230.95 28.4279 230.391 28.1708 229.91C27.9221 229.429 27.5739 229.06 27.1262 228.803C26.6785 228.546 26.1686 228.417 25.5965 228.417C25.0244 228.417 24.5145 228.546 24.0668 228.803C23.6191 229.06 23.2667 229.429 23.0097 229.91C22.761 230.391 22.6366 230.95 22.6366 231.589C22.6366 232.227 22.761 232.791 23.0097 233.28C23.2667 233.761 23.6191 234.134 24.0668 234.399C24.5145 234.656 25.0244 234.785 25.5965 234.785ZM32.5373 230.084C32.7778 229.769 33.1053 229.503 33.5198 229.288C33.9344 229.072 34.4028 228.964 34.9252 228.964C35.5221 228.964 36.0652 229.114 36.5543 229.412C37.0518 229.702 37.4415 230.113 37.7234 230.643C38.0053 231.174 38.1462 231.783 38.1462 232.472C38.1462 233.16 38.0053 233.777 37.7234 234.325C37.4415 234.864 37.0518 235.286 36.5543 235.593C36.0652 235.892 35.5221 236.041 34.9252 236.041C34.4028 236.041 33.9385 235.937 33.5323 235.73C33.126 235.514 32.7944 235.249 32.5373 234.934V239.187H31.1196V229.076H32.5373V230.084ZM36.7036 232.472C36.7036 231.999 36.6041 231.593 36.4051 231.253C36.2144 230.905 35.9574 230.643 35.634 230.469C35.319 230.287 34.979 230.196 34.6142 230.196C34.2577 230.196 33.9178 230.287 33.5944 230.469C33.2794 230.652 33.0224 230.917 32.8234 231.265C32.6327 231.613 32.5373 232.024 32.5373 232.496C32.5373 232.969 32.6327 233.384 32.8234 233.74C33.0224 234.088 33.2794 234.354 33.5944 234.536C33.9178 234.718 34.2577 234.81 34.6142 234.81C34.979 234.81 35.319 234.718 35.634 234.536C35.9574 234.345 36.2144 234.072 36.4051 233.715C36.6041 233.359 36.7036 232.944 36.7036 232.472ZM40.9153 230.233V234.026C40.9153 234.283 40.9733 234.47 41.0894 234.586C41.2138 234.694 41.4211 234.747 41.7112 234.747H42.5818V235.929H41.4625C40.8241 235.929 40.3349 235.78 39.995 235.481C39.6551 235.183 39.4851 234.698 39.4851 234.026V230.233H38.6767V229.076H39.4851V227.373H40.9153V229.076H42.5818V230.233H40.9153ZM44.3228 228.169C44.0658 228.169 43.8502 228.082 43.6761 227.907C43.502 227.733 43.415 227.518 43.415 227.261C43.415 227.004 43.502 226.788 43.6761 226.614C43.8502 226.44 44.0658 226.353 44.3228 226.353C44.5716 226.353 44.783 226.44 44.9571 226.614C45.1312 226.788 45.2183 227.004 45.2183 227.261C45.2183 227.518 45.1312 227.733 44.9571 227.907C44.783 228.082 44.5716 228.169 44.3228 228.169ZM45.0193 229.076V235.929H43.6015V229.076H45.0193ZM49.566 236.041C48.9193 236.041 48.3348 235.896 47.8125 235.606C47.2901 235.307 46.8797 234.893 46.5812 234.362C46.2828 233.823 46.1335 233.201 46.1335 232.496C46.1335 231.8 46.2869 231.182 46.5937 230.643C46.9004 230.105 47.3191 229.69 47.8498 229.4C48.3804 229.11 48.9732 228.964 49.6282 228.964C50.2832 228.964 50.876 229.11 51.4066 229.4C51.9372 229.69 52.3559 230.105 52.6627 230.643C52.9695 231.182 53.1229 231.8 53.1229 232.496C53.1229 233.193 52.9653 233.811 52.6503 234.35C52.3352 234.888 51.9041 235.307 51.3569 235.606C50.818 235.896 50.221 236.041 49.566 236.041ZM49.566 234.81C49.9308 234.81 50.2707 234.723 50.5858 234.548C50.9092 234.374 51.1703 234.113 51.3693 233.765C51.5683 233.417 51.6678 232.994 51.6678 232.496C51.6678 231.999 51.5724 231.58 51.3817 231.24C51.1911 230.892 50.9382 230.631 50.6231 230.457C50.3081 230.283 49.9681 230.196 49.6033 230.196C49.2385 230.196 48.8986 230.283 48.5835 230.457C48.2768 230.631 48.0322 230.892 47.8498 231.24C47.6674 231.58 47.5762 231.999 47.5762 232.496C47.5762 233.234 47.7627 233.806 48.1358 234.213C48.5172 234.611 48.9939 234.81 49.566 234.81ZM57.6948 228.964C58.2337 228.964 58.7146 229.076 59.1374 229.3C59.5685 229.524 59.9043 229.856 60.1448 230.295C60.3852 230.735 60.5054 231.265 60.5054 231.887V235.929H59.1001V232.099C59.1001 231.485 58.9467 231.017 58.6399 230.693C58.3332 230.362 57.9145 230.196 57.3838 230.196C56.8532 230.196 56.4304 230.362 56.1153 230.693C55.8085 231.017 55.6552 231.485 55.6552 232.099V235.929H54.2374V229.076H55.6552V229.86C55.8873 229.578 56.1816 229.358 56.5382 229.201C56.903 229.043 57.2885 228.964 57.6948 228.964ZM64.5142 236.041C63.9753 236.041 63.4902 235.946 63.0591 235.755C62.6363 235.556 62.3005 235.291 62.0517 234.959C61.803 234.619 61.6703 234.242 61.6538 233.827H63.1213C63.1462 234.117 63.283 234.362 63.5317 234.561C63.7887 234.752 64.1079 234.847 64.4893 234.847C64.8873 234.847 65.194 234.772 65.4096 234.623C65.6335 234.466 65.7454 234.267 65.7454 234.026C65.7454 233.769 65.621 233.578 65.3723 233.454C65.1319 233.33 64.7463 233.193 64.2157 233.044C63.7017 232.903 63.283 232.766 62.9596 232.633C62.6363 232.501 62.3544 232.297 62.1139 232.024C61.8818 231.75 61.7657 231.39 61.7657 230.942C61.7657 230.577 61.8735 230.245 62.089 229.947C62.3046 229.64 62.6114 229.4 63.0093 229.226C63.4156 229.052 63.8799 228.964 64.4022 228.964C65.1816 228.964 65.8076 229.163 66.2802 229.561C66.761 229.951 67.0181 230.486 67.0512 231.166H65.6335C65.6086 230.859 65.4842 230.614 65.2604 230.432C65.0365 230.25 64.7339 230.158 64.3525 230.158C63.9794 230.158 63.6934 230.229 63.4944 230.37C63.2954 230.511 63.1959 230.697 63.1959 230.929C63.1959 231.112 63.2622 231.265 63.3949 231.39C63.5275 231.514 63.6892 231.613 63.8799 231.688C64.0706 231.754 64.3525 231.841 64.7256 231.949C65.2231 232.082 65.6293 232.219 65.9444 232.36C66.2677 232.492 66.5455 232.691 66.7776 232.957C67.0098 233.222 67.13 233.574 67.1383 234.014C67.1383 234.403 67.0305 234.752 66.8149 235.058C66.5994 235.365 66.2926 235.606 65.8946 235.78C65.5049 235.954 65.0448 236.041 64.5142 236.041ZM72.9809 230.233V234.026C72.9809 234.283 73.0389 234.47 73.155 234.586C73.2793 234.694 73.4866 234.747 73.7768 234.747H74.6474V235.929H73.5281C72.8897 235.929 72.4005 235.78 72.0606 235.481C71.7206 235.183 71.5507 234.698 71.5507 234.026V230.233H70.7423V229.076H71.5507V227.373H72.9809V229.076H74.6474V230.233H72.9809ZM78.6394 236.041C77.9927 236.041 77.4082 235.896 76.8858 235.606C76.3635 235.307 75.9531 234.893 75.6546 234.362C75.3562 233.823 75.2069 233.201 75.2069 232.496C75.2069 231.8 75.3603 231.182 75.6671 230.643C75.9738 230.105 76.3925 229.69 76.9232 229.4C77.4538 229.11 78.0466 228.964 78.7016 228.964C79.3566 228.964 79.9494 229.11 80.48 229.4C81.0106 229.69 81.4293 230.105 81.7361 230.643C82.0429 231.182 82.1962 231.8 82.1962 232.496C82.1962 233.193 82.0387 233.811 81.7237 234.35C81.4086 234.888 80.9775 235.307 80.4303 235.606C79.8913 235.896 79.2944 236.041 78.6394 236.041ZM78.6394 234.81C79.0042 234.81 79.3441 234.723 79.6592 234.548C79.9825 234.374 80.2437 234.113 80.4427 233.765C80.6417 233.417 80.7412 232.994 80.7412 232.496C80.7412 231.999 80.6458 231.58 80.4551 231.24C80.2644 230.892 80.0116 230.631 79.6965 230.457C79.3814 230.283 79.0415 230.196 78.6767 230.196C78.3119 230.196 77.972 230.283 77.6569 230.457C77.3501 230.631 77.1056 230.892 76.9232 231.24C76.7408 231.58 76.6496 231.999 76.6496 232.496C76.6496 233.234 76.8361 233.806 77.2092 234.213C77.5906 234.611 78.0673 234.81 78.6394 234.81ZM87.6721 234.785H90.5947V235.929H86.2544V227.286H87.6721V234.785ZM97.7738 232.335C97.7738 232.592 97.7572 232.824 97.7241 233.031H92.4883C92.5297 233.578 92.7329 234.018 93.0977 234.35C93.4625 234.681 93.9102 234.847 94.4408 234.847C95.2036 234.847 95.7425 234.528 96.0576 233.889H97.5873C97.38 234.519 97.0028 235.038 96.4555 235.444C95.9166 235.842 95.2451 236.041 94.4408 236.041C93.7858 236.041 93.1972 235.896 92.6748 235.606C92.1608 235.307 91.7545 234.893 91.4561 234.362C91.1659 233.823 91.0208 233.201 91.0208 232.496C91.0208 231.792 91.1617 231.174 91.4436 230.643C91.7338 230.105 92.1359 229.69 92.65 229.4C93.1723 229.11 93.7693 228.964 94.4408 228.964C95.0875 228.964 95.6638 229.105 96.1695 229.387C96.6753 229.669 97.0691 230.067 97.351 230.581C97.6329 231.087 97.7738 231.672 97.7738 232.335ZM96.2939 231.887C96.2856 231.365 96.099 230.946 95.7342 230.631C95.3694 230.316 94.9176 230.158 94.3786 230.158C93.8895 230.158 93.4708 230.316 93.1226 230.631C92.7743 230.938 92.5671 231.356 92.5007 231.887H96.2939ZM98.4095 232.472C98.4095 231.783 98.5504 231.174 98.8323 230.643C99.1225 230.113 99.5122 229.702 100.001 229.412C100.499 229.114 101.046 228.964 101.643 228.964C102.182 228.964 102.65 229.072 103.048 229.288C103.455 229.495 103.778 229.756 104.018 230.071V229.076H105.449V235.929H104.018V234.909C103.778 235.233 103.45 235.502 103.036 235.718C102.621 235.933 102.149 236.041 101.618 236.041C101.029 236.041 100.491 235.892 100.001 235.593C99.5122 235.286 99.1225 234.864 98.8323 234.325C98.5504 233.777 98.4095 233.16 98.4095 232.472ZM104.018 232.496C104.018 232.024 103.919 231.613 103.72 231.265C103.529 230.917 103.276 230.652 102.961 230.469C102.646 230.287 102.306 230.196 101.941 230.196C101.577 230.196 101.237 230.287 100.922 230.469C100.607 230.643 100.35 230.905 100.151 231.253C99.9599 231.593 99.8645 231.999 99.8645 232.472C99.8645 232.944 99.9599 233.359 100.151 233.715C100.35 234.072 100.607 234.345 100.922 234.536C101.245 234.718 101.585 234.81 101.941 234.81C102.306 234.81 102.646 234.718 102.961 234.536C103.276 234.354 103.529 234.088 103.72 233.74C103.919 233.384 104.018 232.969 104.018 232.496ZM108.441 230.071C108.649 229.723 108.922 229.454 109.262 229.263C109.611 229.064 110.021 228.964 110.494 228.964V230.432H110.133C109.577 230.432 109.155 230.573 108.864 230.855C108.582 231.137 108.441 231.626 108.441 232.322V235.929H107.024V229.076H108.441V230.071ZM114.967 228.964C115.506 228.964 115.987 229.076 116.41 229.3C116.841 229.524 117.177 229.856 117.417 230.295C117.658 230.735 117.778 231.265 117.778 231.887V235.929H116.372V232.099C116.372 231.485 116.219 231.017 115.912 230.693C115.605 230.362 115.187 230.196 114.656 230.196C114.126 230.196 113.703 230.362 113.388 230.693C113.081 231.017 112.927 231.485 112.927 232.099V235.929H111.51V229.076H112.927V229.86C113.16 229.578 113.454 229.358 113.81 229.201C114.175 229.043 114.561 228.964 114.967 228.964Z" fill="white" fill-opacity="0.6"/>
<path d="M28.2981 250.041C28.1163 249.706 27.8532 249.453 27.5088 249.28C27.174 249.099 26.777 249.008 26.3178 249.008C25.5238 249.008 24.8876 249.271 24.4093 249.797C23.9309 250.314 23.6918 251.007 23.6918 251.878C23.6918 252.806 23.9405 253.533 24.438 254.059C24.945 254.576 25.6386 254.834 26.5187 254.834C27.1214 254.834 27.6284 254.681 28.0398 254.375C28.4607 254.069 28.7668 253.628 28.9582 253.054H25.8443V251.246H31.1824V253.528C31.0006 254.14 30.6897 254.71 30.2497 255.236C29.8192 255.762 29.2691 256.188 28.5994 256.513C27.9298 256.838 27.174 257.001 26.3321 257.001C25.3372 257.001 24.4475 256.785 23.6631 256.355C22.8882 255.915 22.2807 255.307 21.8406 254.533C21.4102 253.758 21.1949 252.873 21.1949 251.878C21.1949 250.883 21.4102 249.998 21.8406 249.223C22.2807 248.439 22.8882 247.831 23.6631 247.401C24.438 246.961 25.3229 246.741 26.3178 246.741C27.5232 246.741 28.5372 247.032 29.36 247.616C30.1923 248.199 30.7423 249.008 31.0102 250.041H28.2981ZM31.7667 252.911C31.7667 252.088 31.9198 251.366 32.2259 250.744C32.5416 250.122 32.9673 249.644 33.503 249.309C34.0388 248.974 34.6367 248.807 35.2968 248.807C35.8612 248.807 36.3539 248.922 36.7748 249.151C37.2053 249.381 37.5353 249.682 37.7649 250.055V248.922H40.2188V256.929H37.7649V255.795C37.5258 256.168 37.1909 256.47 36.7605 256.699C36.3395 256.929 35.8468 257.044 35.2824 257.044C34.6319 257.044 34.0388 256.876 33.503 256.542C32.9673 256.197 32.5416 255.714 32.2259 255.092C31.9198 254.461 31.7667 253.734 31.7667 252.911ZM37.7649 252.925C37.7649 252.313 37.5927 251.83 37.2483 251.476C36.9135 251.122 36.5022 250.945 36.0143 250.945C35.5264 250.945 35.1102 251.122 34.7658 251.476C34.431 251.82 34.2636 252.299 34.2636 252.911C34.2636 253.523 34.431 254.011 34.7658 254.375C35.1102 254.729 35.5264 254.906 36.0143 254.906C36.5022 254.906 36.9135 254.729 37.2483 254.375C37.5927 254.021 37.7649 253.538 37.7649 252.925ZM51.9241 248.836C52.919 248.836 53.7083 249.137 54.2918 249.74C54.8849 250.342 55.1815 251.179 55.1815 252.251V256.929H52.742V252.581C52.742 252.064 52.6033 251.667 52.3259 251.39C52.058 251.103 51.6849 250.959 51.2066 250.959C50.7283 250.959 50.3504 251.103 50.073 251.39C49.8051 251.667 49.6712 252.064 49.6712 252.581V256.929H47.2317V252.581C47.2317 252.064 47.093 251.667 46.8155 251.39C46.5477 251.103 46.1746 250.959 45.6963 250.959C45.2179 250.959 44.84 251.103 44.5626 251.39C44.2948 251.667 44.1608 252.064 44.1608 252.581V256.929H41.707V248.922H44.1608V249.926C44.4096 249.591 44.7348 249.328 45.1366 249.137C45.5384 248.936 45.9928 248.836 46.4998 248.836C47.1025 248.836 47.6383 248.965 48.107 249.223C48.5854 249.481 48.9585 249.85 49.2263 250.328C49.5037 249.888 49.8816 249.529 50.36 249.252C50.8383 248.974 51.3597 248.836 51.9241 248.836ZM64.1587 252.796C64.1587 253.026 64.1443 253.265 64.1156 253.514H58.5622C58.6005 254.011 58.7584 254.394 59.0358 254.662C59.3228 254.92 59.672 255.049 60.0833 255.049C60.6956 255.049 61.1213 254.791 61.3605 254.274H63.9721C63.8382 254.8 63.5942 255.274 63.2403 255.695C62.8959 256.116 62.4606 256.446 61.9344 256.685C61.4083 256.924 60.8199 257.044 60.1694 257.044C59.385 257.044 58.6866 256.876 58.0743 256.542C57.4621 256.207 56.9838 255.728 56.6394 255.107C56.295 254.485 56.1228 253.758 56.1228 252.925C56.1228 252.093 56.2902 251.366 56.625 250.744C56.9694 250.122 57.4477 249.644 58.06 249.309C58.6723 248.974 59.3754 248.807 60.1694 248.807C60.9443 248.807 61.6331 248.97 62.2358 249.295C62.8385 249.62 63.3073 250.084 63.6421 250.687C63.9865 251.289 64.1587 251.993 64.1587 252.796ZM61.6475 252.15C61.6475 251.73 61.504 251.395 61.217 251.146C60.93 250.897 60.5712 250.773 60.1407 250.773C59.7294 250.773 59.3802 250.892 59.0932 251.132C58.8157 251.371 58.6436 251.71 58.5766 252.15H61.6475ZM75.5973 250.098C75.5973 250.682 75.4634 251.218 75.1955 251.706C74.9276 252.184 74.5163 252.571 73.9614 252.868C73.4066 253.165 72.7178 253.313 71.895 253.313H70.374V256.929H67.9201V246.855H71.895C72.6986 246.855 73.3779 246.994 73.9327 247.272C74.4876 247.549 74.9037 247.932 75.1811 248.419C75.4586 248.907 75.5973 249.467 75.5973 250.098ZM71.7085 251.361C72.1772 251.361 72.5264 251.251 72.756 251.031C72.9856 250.811 73.1004 250.5 73.1004 250.098C73.1004 249.697 72.9856 249.386 72.756 249.166C72.5264 248.946 72.1772 248.836 71.7085 248.836H70.374V251.361H71.7085ZM80.2326 257.044C79.4482 257.044 78.7402 256.876 78.1089 256.542C77.487 256.207 76.9944 255.728 76.6308 255.107C76.2769 254.485 76.0999 253.758 76.0999 252.925C76.0999 252.103 76.2816 251.38 76.6452 250.759C77.0087 250.127 77.5062 249.644 78.1376 249.309C78.7689 248.974 79.4769 248.807 80.2613 248.807C81.0458 248.807 81.7537 248.974 82.3851 249.309C83.0165 249.644 83.514 250.127 83.8775 250.759C84.241 251.38 84.4228 252.103 84.4228 252.925C84.4228 253.748 84.2362 254.475 83.8631 255.107C83.4996 255.728 82.9974 256.207 82.3564 256.542C81.725 256.876 81.0171 257.044 80.2326 257.044ZM80.2326 254.92C80.7014 254.92 81.0984 254.748 81.4237 254.403C81.7585 254.059 81.9259 253.566 81.9259 252.925C81.9259 252.284 81.7633 251.792 81.438 251.447C81.1223 251.103 80.7301 250.931 80.2613 250.931C79.783 250.931 79.386 251.103 79.0703 251.447C78.7546 251.782 78.5968 252.275 78.5968 252.925C78.5968 253.566 78.7498 254.059 79.0559 254.403C79.3716 254.748 79.7639 254.92 80.2326 254.92ZM87.8914 250.256C88.1784 249.816 88.5372 249.472 88.9676 249.223C89.3981 248.965 89.8765 248.836 90.4026 248.836V251.433H89.7282C89.1159 251.433 88.6567 251.567 88.3506 251.835C88.0445 252.093 87.8914 252.552 87.8914 253.212V256.929H85.4376V248.922H87.8914V250.256ZM95.7513 254.848V256.929H94.5029C93.6132 256.929 92.9196 256.714 92.4222 256.283C91.9247 255.843 91.676 255.13 91.676 254.145V250.959H90.7002V248.922H91.676V246.97H94.1298V248.922H95.737V250.959H94.1298V254.174C94.1298 254.413 94.1872 254.585 94.302 254.69C94.4168 254.796 94.6081 254.848 94.876 254.848H95.7513ZM96.3432 252.911C96.3432 252.088 96.4963 251.366 96.8024 250.744C97.1181 250.122 97.5439 249.644 98.0796 249.309C98.6153 248.974 99.2132 248.807 99.8733 248.807C100.438 248.807 100.93 248.922 101.351 249.151C101.782 249.381 102.112 249.682 102.341 250.055V248.922H104.795V256.929H102.341V255.795C102.102 256.168 101.767 256.47 101.337 256.699C100.916 256.929 100.423 257.044 99.859 257.044C99.2084 257.044 98.6153 256.876 98.0796 256.542C97.5439 256.197 97.1181 255.714 96.8024 255.092C96.4963 254.461 96.3432 253.734 96.3432 252.911ZM102.341 252.925C102.341 252.313 102.169 251.83 101.825 251.476C101.49 251.122 101.079 250.945 100.591 250.945C100.103 250.945 99.6868 251.122 99.3424 251.476C99.0075 251.82 98.8401 252.299 98.8401 252.911C98.8401 253.523 99.0075 254.011 99.3424 254.375C99.6868 254.729 100.103 254.906 100.591 254.906C101.079 254.906 101.49 254.729 101.825 254.375C102.169 254.021 102.341 253.538 102.341 252.925ZM108.737 246.31V256.929H106.284V246.31H108.737Z" fill="white"/>
<g filter="url(#filter0_d_304_132)">
<path d="M141.48 174.513C-73.2872 264.592 40.8779 184.729 124.806 133.538" stroke="url(#paint2_linear_304_132)" stroke-width="0.607412"/>
</g>
<g filter="url(#filter1_d_304_132)">
<path d="M124.839 133.66C339.676 43.8926 225.447 123.59 141.478 174.66" stroke="url(#paint3_linear_304_132)" stroke-width="0.607412"/>
</g>
<ellipse cx="49.9686" cy="53.1575" rx="49.9686" ry="53.1575" transform="matrix(0.999962 0.00867481 -0.00769365 0.99997 87.3071 94.6937)" fill="url(#paint4_linear_304_132)"/>
<ellipse cx="9.99371" cy="10.6315" rx="9.99371" ry="10.6315" transform="matrix(0.999962 0.00867481 -0.00769365 0.99997 149.357 148.391)" fill="black"/>
<ellipse cx="10.2761" cy="12.4197" rx="10.2761" ry="12.4197" transform="matrix(-0.896024 -0.444874 0.401622 -0.915417 122.695 196.501)" fill="black"/>
<ellipse cx="18.9383" cy="13.2167" rx="18.9383" ry="13.2167" transform="matrix(0.908419 -0.417158 0.28196 0.959709 110.979 135.451)" fill="black"/>
<ellipse cx="15.6157" cy="5.46188" rx="15.6157" ry="5.46188" transform="matrix(-0.377583 -0.926352 0.948071 -0.317108 164.93 140.508)" fill="black"/>
<ellipse cx="7.57534" cy="2.64334" rx="7.57534" ry="2.64334" transform="matrix(0.908419 -0.417158 0.28196 0.959709 110.152 113.026)" fill="black"/>
<ellipse cx="4.66377" cy="6.60539" rx="4.66377" ry="6.60539" transform="matrix(0.999962 0.00867481 -0.00769365 0.99997 93.5069 135.369)" fill="black"/>
<defs>
<filter id="filter0_d_304_132" x="15.6891" y="133.178" width="128.239" height="87.3703" filterUnits="userSpaceOnUse" color-interpolation-filters="sRGB">
<feFlood flood-opacity="0" result="BackgroundImageFix"/>
<feColorMatrix in="SourceAlpha" type="matrix" values="0 0 0 0 0 0 0 0 0 0 0 0 0 0 0 0 0 0 127 0" result="hardAlpha"/>
<feOffset dy="2.42965"/>
<feGaussianBlur stdDeviation="1.21482"/>
<feComposite in2="hardAlpha" operator="out"/>
<feColorMatrix type="matrix" values="0 0 0 0 0 0 0 0 0 0 0 0 0 0 0 0 0 0 0.25 0"/>
<feBlend mode="normal" in2="BackgroundImageFix" result="effect1_dropShadow_304_132"/>
<feBlend mode="normal" in="SourceGraphic" in2="effect1_dropShadow_304_132" result="shape"/>
</filter>
<filter id="filter1_d_304_132" x="122.391" y="92.6544" width="128.267" height="87.2244" filterUnits="userSpaceOnUse" color-interpolation-filters="sRGB">
<feFlood flood-opacity="0" result="BackgroundImageFix"/>
<feColorMatrix in="SourceAlpha" type="matrix" values="0 0 0 0 0 0 0 0 0 0 0 0 0 0 0 0 0 0 127 0" result="hardAlpha"/>
<feOffset dy="2.42965"/>
<feGaussianBlur stdDeviation="1.21482"/>
<feComposite in2="hardAlpha" operator="out"/>
<feColorMatrix type="matrix" values="0 0 0 0 0 0 0 0 0 0 0 0 0 0 0 0 0 0 0.25 0"/>
<feBlend mode="normal" in2="BackgroundImageFix" result="effect1_dropShadow_304_132"/>
<feBlend mode="normal" in="SourceGraphic" in2="effect1_dropShadow_304_132" result="shape"/>
</filter>
<linearGradient id="paint0_linear_304_132" x1="81.1273" y1="113.053" x2="99.7415" y2="223.496" gradientUnits="userSpaceOnUse">
<stop stop-color="#363E51"/>
<stop offset="1" stop-color="#191E26"/>
</linearGradient>
<linearGradient id="paint1_linear_304_132" x1="30.8636" y1="63.124" x2="166.911" y2="192.489" gradientUnits="userSpaceOnUse">
<stop stop-color="white"/>
<stop offset="1"/>
</linearGradient>
<linearGradient id="paint2_linear_304_132" x1="36.9377" y1="258.758" x2="156.039" y2="210.293" gradientUnits="userSpaceOnUse">
<stop stop-color="#4E4AF2"/>
<stop offset="1" stop-color="#7FDBFF"/>
</linearGradient>
<linearGradient id="paint3_linear_304_132" x1="242.158" y1="71.9994" x2="123.039" y2="120.341" gradientUnits="userSpaceOnUse">
<stop stop-color="#4E4AF2"/>
<stop offset="1" stop-color="#7FDBFF"/>
</linearGradient>
<linearGradient id="paint4_linear_304_132" x1="49.9686" y1="0" x2="49.9686" y2="106.315" gradientUnits="userSpaceOnUse">
<stop stop-color="#4E4AF2"/>
<stop offset="1" stop-color="#7FDBFF"/>
</linearGradient>
</defs>
</svg>
