<svg width="165" height="223" viewBox="0 0 165 223" fill="none" xmlns="http://www.w3.org/2000/svg">
<path d="M7.69046e-06 46.6915C3.23707e-06 37.0258 6.91248 28.7432 16.4223 27.0141L141.422 4.28685C153.699 2.05471 165 11.4862 165 23.9643V203C165 214.046 156.046 223 145 223H20.0001C8.95437 223 8.47972e-05 214.046 7.97081e-05 203L7.69046e-06 46.6915Z" fill="url(#paint0_linear_283_103)" fill-opacity="0.6"/>
<path d="M141.602 5.27051C153.264 3.15027 164 12.11 164 23.9639V203C164 213.493 155.493 222 145 222H20C9.50662 222 1 213.493 1 203V46.6914L1.00488 46.2617C1.20288 37.4072 7.50335 29.8576 16.1797 28.0791L16.6016 27.998L141.602 5.27051Z" stroke="url(#paint1_linear_283_103)" stroke-opacity="0.2" stroke-width="2" style="mix-blend-mode:overlay"/>
<path d="M11.481 169.463C11.481 168.579 11.6847 167.786 12.092 167.084C12.508 166.382 13.067 165.836 13.769 165.446C14.4797 165.047 15.2553 164.848 16.096 164.848C17.058 164.848 17.9117 165.086 18.657 165.563C19.411 166.031 19.957 166.698 20.295 167.565H18.514C18.28 167.088 17.955 166.733 17.539 166.499C17.123 166.265 16.642 166.148 16.096 166.148C15.498 166.148 14.965 166.282 14.497 166.551C14.029 166.82 13.6607 167.205 13.392 167.708C13.132 168.211 13.002 168.796 13.002 169.463C13.002 170.13 13.132 170.715 13.392 171.218C13.6607 171.721 14.029 172.111 14.497 172.388C14.965 172.657 15.498 172.791 16.096 172.791C16.642 172.791 17.123 172.674 17.539 172.44C17.955 172.206 18.28 171.851 18.514 171.374H20.295C19.957 172.241 19.411 172.908 18.657 173.376C17.9117 173.844 17.058 174.078 16.096 174.078C15.2467 174.078 14.471 173.883 13.769 173.493C13.067 173.094 12.508 172.544 12.092 171.842C11.6847 171.14 11.481 170.347 11.481 169.463ZM25.4347 166.72C25.9807 166.72 26.466 166.837 26.8907 167.071C27.324 167.305 27.662 167.652 27.9047 168.111C28.156 168.57 28.2817 169.125 28.2817 169.775V174H26.8127V169.996C26.8127 169.355 26.6524 168.865 26.3317 168.527C26.011 168.18 25.5734 168.007 25.0187 168.007C24.464 168.007 24.022 168.18 23.6927 168.527C23.372 168.865 23.2117 169.355 23.2117 169.996V174H21.7297V164.38H23.2117V167.669C23.463 167.366 23.7794 167.132 24.1607 166.967C24.5507 166.802 24.9754 166.72 25.4347 166.72ZM36.4371 170.243C36.4371 170.512 36.4197 170.754 36.3851 170.971H30.9121C30.9554 171.543 31.1677 172.002 31.5491 172.349C31.9304 172.696 32.3984 172.869 32.9531 172.869C33.7504 172.869 34.3137 172.535 34.6431 171.868H36.2421C36.0254 172.527 35.6311 173.068 35.0591 173.493C34.4957 173.909 33.7937 174.117 32.9531 174.117C32.2684 174.117 31.6531 173.965 31.1071 173.662C30.5697 173.35 30.1451 172.917 29.8331 172.362C29.5297 171.799 29.3781 171.149 29.3781 170.412C29.3781 169.675 29.5254 169.03 29.8201 168.475C30.1234 167.912 30.5437 167.478 31.0811 167.175C31.6271 166.872 32.2511 166.72 32.9531 166.72C33.6291 166.72 34.2314 166.867 34.7601 167.162C35.2887 167.457 35.7004 167.873 35.9951 168.41C36.2897 168.939 36.4371 169.55 36.4371 170.243ZM34.8901 169.775C34.8814 169.229 34.6864 168.791 34.3051 168.462C33.9237 168.133 33.4514 167.968 32.8881 167.968C32.3767 167.968 31.9391 168.133 31.5751 168.462C31.2111 168.783 30.9944 169.22 30.9251 169.775H34.8901ZM37.1015 170.412C37.1015 169.675 37.2488 169.03 37.5435 168.475C37.8468 167.912 38.2628 167.478 38.7915 167.175C39.3202 166.872 39.9268 166.72 40.6115 166.72C41.4782 166.72 42.1932 166.928 42.7565 167.344C43.3285 167.751 43.7142 168.336 43.9135 169.099H42.3145C42.1845 168.744 41.9765 168.466 41.6905 168.267C41.4045 168.068 41.0448 167.968 40.6115 167.968C40.0048 167.968 39.5195 168.185 39.1555 168.618C38.8002 169.043 38.6225 169.641 38.6225 170.412C38.6225 171.183 38.8002 171.786 39.1555 172.219C39.5195 172.652 40.0048 172.869 40.6115 172.869C41.4695 172.869 42.0372 172.492 42.3145 171.738H43.9135C43.7055 172.466 43.3155 173.047 42.7435 173.48C42.1715 173.905 41.4608 174.117 40.6115 174.117C39.9268 174.117 39.3202 173.965 38.7915 173.662C38.2628 173.35 37.8468 172.917 37.5435 172.362C37.2488 171.799 37.1015 171.149 37.1015 170.412ZM47.9244 170.425L51.2264 174H49.2244L46.5724 170.919V174H45.0904V164.38H46.5724V169.97L49.1724 166.837H51.2264L47.9244 170.425ZM61.5136 166.837L57.1196 177.367H55.5856L57.0416 173.883L54.2206 166.837H55.8716L57.8866 172.297L59.9796 166.837H61.5136ZM65.439 174.117C64.763 174.117 64.152 173.965 63.606 173.662C63.06 173.35 62.631 172.917 62.319 172.362C62.007 171.799 61.851 171.149 61.851 170.412C61.851 169.684 62.0114 169.038 62.332 168.475C62.6527 167.912 63.0904 167.478 63.645 167.175C64.1997 166.872 64.8194 166.72 65.504 166.72C66.1887 166.72 66.8084 166.872 67.363 167.175C67.9177 167.478 68.3554 167.912 68.676 168.475C68.9967 169.038 69.157 169.684 69.157 170.412C69.157 171.14 68.9924 171.786 68.663 172.349C68.3337 172.912 67.883 173.35 67.311 173.662C66.7477 173.965 66.1237 174.117 65.439 174.117ZM65.439 172.83C65.8204 172.83 66.1757 172.739 66.505 172.557C66.843 172.375 67.116 172.102 67.324 171.738C67.532 171.374 67.636 170.932 67.636 170.412C67.636 169.892 67.5364 169.454 67.337 169.099C67.1377 168.735 66.8734 168.462 66.544 168.28C66.2147 168.098 65.8594 168.007 65.478 168.007C65.0967 168.007 64.7414 168.098 64.412 168.28C64.0914 168.462 63.8357 168.735 63.645 169.099C63.4544 169.454 63.359 169.892 63.359 170.412C63.359 171.183 63.554 171.781 63.944 172.206C64.3427 172.622 64.841 172.83 65.439 172.83ZM76.8091 166.837V174H75.3271V173.155C75.0931 173.45 74.7854 173.684 74.4041 173.857C74.0314 174.022 73.6327 174.104 73.2081 174.104C72.6447 174.104 72.1377 173.987 71.6871 173.753C71.2451 173.519 70.8941 173.172 70.6341 172.713C70.3827 172.254 70.2571 171.699 70.2571 171.049V166.837H71.7261V170.828C71.7261 171.469 71.8864 171.963 72.2071 172.31C72.5277 172.648 72.9654 172.817 73.5201 172.817C74.0747 172.817 74.5124 172.648 74.8331 172.31C75.1624 171.963 75.3271 171.469 75.3271 170.828V166.837H76.8091ZM79.9465 167.877C80.1631 167.513 80.4491 167.231 80.8045 167.032C81.1685 166.824 81.5975 166.72 82.0915 166.72V168.254H81.7145C81.1338 168.254 80.6918 168.401 80.3885 168.696C80.0938 168.991 79.9465 169.502 79.9465 170.23V174H78.4645V166.837H79.9465V167.877ZM90.9237 174L88.8437 170.386H87.7127V174H86.2307V164.965H89.3507C90.044 164.965 90.629 165.086 91.1057 165.329C91.591 165.572 91.9507 165.897 92.1847 166.304C92.4273 166.711 92.5487 167.166 92.5487 167.669C92.5487 168.258 92.3753 168.796 92.0287 169.281C91.6907 169.758 91.1663 170.083 90.4557 170.256L92.6917 174H90.9237ZM87.7127 169.203H89.3507C89.9053 169.203 90.3213 169.064 90.5987 168.787C90.8847 168.51 91.0277 168.137 91.0277 167.669C91.0277 167.201 90.889 166.837 90.6117 166.577C90.3343 166.308 89.914 166.174 89.3507 166.174H87.7127V169.203ZM93.6505 170.386C93.6505 169.667 93.7979 169.03 94.0925 168.475C94.3959 167.92 94.8032 167.491 95.3145 167.188C95.8345 166.876 96.4065 166.72 97.0305 166.72C97.5939 166.72 98.0835 166.833 98.4995 167.058C98.9242 167.275 99.2622 167.548 99.5135 167.877V166.837H101.009V174H99.5135V172.934C99.2622 173.272 98.9199 173.554 98.4865 173.779C98.0532 174.004 97.5592 174.117 97.0045 174.117C96.3892 174.117 95.8259 173.961 95.3145 173.649C94.8032 173.328 94.3959 172.886 94.0925 172.323C93.7979 171.751 93.6505 171.105 93.6505 170.386ZM99.5135 170.412C99.5135 169.918 99.4095 169.489 99.2015 169.125C99.0022 168.761 98.7379 168.484 98.4085 168.293C98.0792 168.102 97.7239 168.007 97.3425 168.007C96.9612 168.007 96.6059 168.102 96.2765 168.293C95.9472 168.475 95.6785 168.748 95.4705 169.112C95.2712 169.467 95.1715 169.892 95.1715 170.386C95.1715 170.88 95.2712 171.313 95.4705 171.686C95.6785 172.059 95.9472 172.345 96.2765 172.544C96.6145 172.735 96.9699 172.83 97.3425 172.83C97.7239 172.83 98.0792 172.735 98.4085 172.544C98.7379 172.353 99.0022 172.076 99.2015 171.712C99.4095 171.339 99.5135 170.906 99.5135 170.412ZM106.269 166.72C106.832 166.72 107.335 166.837 107.777 167.071C108.228 167.305 108.579 167.652 108.83 168.111C109.081 168.57 109.207 169.125 109.207 169.775V174H107.738V169.996C107.738 169.355 107.578 168.865 107.257 168.527C106.936 168.18 106.499 168.007 105.944 168.007C105.389 168.007 104.947 168.18 104.618 168.527C104.297 168.865 104.137 169.355 104.137 169.996V174H102.655V166.837H104.137V167.656C104.38 167.361 104.687 167.132 105.06 166.967C105.441 166.802 105.844 166.72 106.269 166.72ZM113.631 170.425L116.933 174H114.931L112.279 170.919V174H110.797V164.38H112.279V169.97L114.879 166.837H116.933L113.631 170.425Z" fill="white" fill-opacity="0.6"/>
<path d="M18.305 190.6C18.915 190.73 19.405 191.035 19.775 191.515C20.145 191.985 20.33 192.525 20.33 193.135C20.33 194.015 20.02 194.715 19.4 195.235C18.79 195.745 17.935 196 16.835 196H11.93V185.47H16.67C17.74 185.47 18.575 185.715 19.175 186.205C19.785 186.695 20.09 187.36 20.09 188.2C20.09 188.82 19.925 189.335 19.595 189.745C19.275 190.155 18.845 190.44 18.305 190.6ZM14.495 189.73H16.175C16.595 189.73 16.915 189.64 17.135 189.46C17.365 189.27 17.48 188.995 17.48 188.635C17.48 188.275 17.365 188 17.135 187.81C16.915 187.62 16.595 187.525 16.175 187.525H14.495V189.73ZM16.385 193.93C16.815 193.93 17.145 193.835 17.375 193.645C17.615 193.445 17.735 193.16 17.735 192.79C17.735 192.42 17.61 192.13 17.36 191.92C17.12 191.71 16.785 191.605 16.355 191.605H14.495V193.93H16.385ZM29.4077 191.68C29.4077 191.92 29.3927 192.17 29.3627 192.43H23.5577C23.5977 192.95 23.7627 193.35 24.0527 193.63C24.3527 193.9 24.7177 194.035 25.1477 194.035C25.7877 194.035 26.2327 193.765 26.4827 193.225H29.2127C29.0727 193.775 28.8177 194.27 28.4477 194.71C28.0877 195.15 27.6327 195.495 27.0827 195.745C26.5327 195.995 25.9177 196.12 25.2377 196.12C24.4177 196.12 23.6877 195.945 23.0477 195.595C22.4077 195.245 21.9077 194.745 21.5477 194.095C21.1877 193.445 21.0077 192.685 21.0077 191.815C21.0077 190.945 21.1827 190.185 21.5327 189.535C21.8927 188.885 22.3927 188.385 23.0327 188.035C23.6727 187.685 24.4077 187.51 25.2377 187.51C26.0477 187.51 26.7677 187.68 27.3977 188.02C28.0277 188.36 28.5177 188.845 28.8677 189.475C29.2277 190.105 29.4077 190.84 29.4077 191.68ZM26.7827 191.005C26.7827 190.565 26.6327 190.215 26.3327 189.955C26.0327 189.695 25.6577 189.565 25.2077 189.565C24.7777 189.565 24.4127 189.69 24.1127 189.94C23.8227 190.19 23.6427 190.545 23.5727 191.005H26.7827ZM33.8659 196.12C33.1359 196.12 32.4859 195.995 31.9159 195.745C31.3459 195.495 30.8959 195.155 30.5659 194.725C30.2359 194.285 30.0509 193.795 30.0109 193.255H32.5459C32.5759 193.545 32.7109 193.78 32.9509 193.96C33.1909 194.14 33.4859 194.23 33.8359 194.23C34.1559 194.23 34.4009 194.17 34.5709 194.05C34.7509 193.92 34.8409 193.755 34.8409 193.555C34.8409 193.315 34.7159 193.14 34.4659 193.03C34.2159 192.91 33.8109 192.78 33.2509 192.64C32.6509 192.5 32.1509 192.355 31.7509 192.205C31.3509 192.045 31.0059 191.8 30.7159 191.47C30.4259 191.13 30.2809 190.675 30.2809 190.105C30.2809 189.625 30.4109 189.19 30.6709 188.8C30.9409 188.4 31.3309 188.085 31.8409 187.855C32.3609 187.625 32.9759 187.51 33.6859 187.51C34.7359 187.51 35.5609 187.77 36.1609 188.29C36.7709 188.81 37.1209 189.5 37.2109 190.36H34.8409C34.8009 190.07 34.6709 189.84 34.4509 189.67C34.2409 189.5 33.9609 189.415 33.6109 189.415C33.3109 189.415 33.0809 189.475 32.9209 189.595C32.7609 189.705 32.6809 189.86 32.6809 190.06C32.6809 190.3 32.8059 190.48 33.0559 190.6C33.3159 190.72 33.7159 190.84 34.2559 190.96C34.8759 191.12 35.3809 191.28 35.7709 191.44C36.1609 191.59 36.5009 191.84 36.7909 192.19C37.0909 192.53 37.2459 192.99 37.2559 193.57C37.2559 194.06 37.1159 194.5 36.8359 194.89C36.5659 195.27 36.1709 195.57 35.6509 195.79C35.1409 196.01 34.5459 196.12 33.8659 196.12ZM43.1901 193.825V196H41.8851C40.9551 196 40.2301 195.775 39.7101 195.325C39.1901 194.865 38.9301 194.12 38.9301 193.09V189.76H37.9101V187.63H38.9301V185.59H41.4951V187.63H43.1751V189.76H41.4951V193.12C41.4951 193.37 41.5551 193.55 41.6751 193.66C41.7951 193.77 41.9951 193.825 42.2751 193.825H43.1901ZM49.7626 187.525V189.655H53.1976V191.635H49.7626V193.945H53.6476V196H47.1976V185.47H53.6476V187.525H49.7626ZM59.2128 189.76H57.8328V196H55.2678V189.76H54.3378V187.63H55.2678V187.39C55.2678 186.36 55.5628 185.58 56.1528 185.05C56.7428 184.51 57.6078 184.24 58.7478 184.24C58.9378 184.24 59.0778 184.245 59.1678 184.255V186.43C58.6778 186.4 58.3328 186.47 58.1328 186.64C57.9328 186.81 57.8328 187.115 57.8328 187.555V187.63H59.2128V189.76ZM64.3181 189.76H62.9381V196H60.3731V189.76H59.4431V187.63H60.3731V187.39C60.3731 186.36 60.6681 185.58 61.2581 185.05C61.8481 184.51 62.7131 184.24 63.8531 184.24C64.0431 184.24 64.1831 184.245 64.2731 184.255V186.43C63.7831 186.4 63.4381 186.47 63.2381 186.64C63.0381 186.81 62.9381 187.115 62.9381 187.555V187.63H64.3181V189.76ZM69.0334 196.12C68.2134 196.12 67.4734 195.945 66.8134 195.595C66.1634 195.245 65.6484 194.745 65.2684 194.095C64.8984 193.445 64.7134 192.685 64.7134 191.815C64.7134 190.955 64.9034 190.2 65.2834 189.55C65.6634 188.89 66.1834 188.385 66.8434 188.035C67.5034 187.685 68.2434 187.51 69.0634 187.51C69.8834 187.51 70.6234 187.685 71.2834 188.035C71.9434 188.385 72.4634 188.89 72.8434 189.55C73.2234 190.2 73.4134 190.955 73.4134 191.815C73.4134 192.675 73.2184 193.435 72.8284 194.095C72.4484 194.745 71.9234 195.245 71.2534 195.595C70.5934 195.945 69.8534 196.12 69.0334 196.12ZM69.0334 193.9C69.5234 193.9 69.9384 193.72 70.2784 193.36C70.6284 193 70.8034 192.485 70.8034 191.815C70.8034 191.145 70.6334 190.63 70.2934 190.27C69.9634 189.91 69.5534 189.73 69.0634 189.73C68.5634 189.73 68.1484 189.91 67.8184 190.27C67.4884 190.62 67.3234 191.135 67.3234 191.815C67.3234 192.485 67.4834 193 67.8034 193.36C68.1334 193.72 68.5434 193.9 69.0334 193.9ZM77.0391 189.025C77.3391 188.565 77.7141 188.205 78.1641 187.945C78.6141 187.675 79.1141 187.54 79.6641 187.54V190.255H78.9591C78.3191 190.255 77.8391 190.395 77.5191 190.675C77.1991 190.945 77.0391 191.425 77.0391 192.115V196H74.4741V187.63H77.0391V189.025ZM85.2552 193.825V196H83.9502C83.0202 196 82.2952 195.775 81.7752 195.325C81.2552 194.865 80.9952 194.12 80.9952 193.09V189.76H79.9752V187.63H80.9952V185.59H83.5602V187.63H85.2402V189.76H83.5602V193.12C83.5602 193.37 83.6202 193.55 83.7402 193.66C83.8602 193.77 84.0602 193.825 84.3402 193.825H85.2552ZM89.7889 196.12C89.0589 196.12 88.4089 195.995 87.8389 195.745C87.2689 195.495 86.8189 195.155 86.4889 194.725C86.1589 194.285 85.9739 193.795 85.9339 193.255H88.4689C88.4989 193.545 88.6339 193.78 88.8739 193.96C89.1139 194.14 89.4089 194.23 89.7589 194.23C90.0789 194.23 90.3239 194.17 90.4939 194.05C90.6739 193.92 90.7639 193.755 90.7639 193.555C90.7639 193.315 90.6389 193.14 90.3889 193.03C90.1389 192.91 89.7339 192.78 89.1739 192.64C88.5739 192.5 88.0739 192.355 87.6739 192.205C87.2739 192.045 86.9289 191.8 86.6389 191.47C86.3489 191.13 86.2039 190.675 86.2039 190.105C86.2039 189.625 86.3339 189.19 86.5939 188.8C86.8639 188.4 87.2539 188.085 87.7639 187.855C88.2839 187.625 88.8989 187.51 89.6089 187.51C90.6589 187.51 91.4839 187.77 92.0839 188.29C92.6939 188.81 93.0439 189.5 93.1339 190.36H90.7639C90.7239 190.07 90.5939 189.84 90.3739 189.67C90.1639 189.5 89.8839 189.415 89.5339 189.415C89.2339 189.415 89.0039 189.475 88.8439 189.595C88.6839 189.705 88.6039 189.86 88.6039 190.06C88.6039 190.3 88.7289 190.48 88.9789 190.6C89.2389 190.72 89.6389 190.84 90.1789 190.96C90.7989 191.12 91.3039 191.28 91.6939 191.44C92.0839 191.59 92.4239 191.84 92.7139 192.19C93.0139 192.53 93.1689 192.99 93.1789 193.57C93.1789 194.06 93.0389 194.5 92.7589 194.89C92.4889 195.27 92.0939 195.57 91.5739 195.79C91.0639 196.01 90.4689 196.12 89.7889 196.12Z" fill="white"/>
<path d="M51.8889 138V128.667H70.7778V114.2C66.9213 113.344 63.4788 111.731 60.4503 109.361C57.4218 106.99 55.1976 104.014 53.7778 100.433C47.875 99.7333 42.9371 97.1869 38.9642 92.794C34.9912 88.4011 33.0031 83.2476 33 77.3333V72.6667C33 70.1 33.9256 67.9036 35.7767 66.0773C37.6278 64.2511 39.8504 63.3364 42.4444 63.3333H51.8889V54H99.1111V63.3333H108.556C111.153 63.3333 113.377 64.248 115.228 66.0773C117.079 67.9067 118.003 70.1031 118 72.6667V77.3333C118 83.2444 116.012 88.398 112.036 92.794C108.06 97.19 103.122 99.7364 97.2222 100.433C95.8056 104.011 93.583 106.987 90.5544 109.361C87.5259 111.734 84.0819 113.348 80.2222 114.2V128.667H99.1111V138H51.8889ZM51.8889 90.4V72.6667H42.4444V77.3333C42.4444 80.2889 43.3102 82.9536 45.0417 85.3273C46.7731 87.7011 49.0556 89.392 51.8889 90.4ZM75.5 105.333C79.4352 105.333 82.7801 103.972 85.5347 101.25C88.2894 98.5278 89.6667 95.2222 89.6667 91.3333V63.3333H61.3333V91.3333C61.3333 95.2222 62.7106 98.5278 65.4653 101.25C68.2199 103.972 71.5648 105.333 75.5 105.333ZM99.1111 90.4C101.944 89.3889 104.227 87.6964 105.958 85.3227C107.69 82.9489 108.556 80.2858 108.556 77.3333V72.6667H99.1111V90.4Z" fill="url(#paint2_linear_283_103)"/>
<defs>
<linearGradient id="paint0_linear_283_103" x1="46" y1="52.1915" x2="79.642" y2="160.465" gradientUnits="userSpaceOnUse">
<stop stop-color="#363E51"/>
<stop offset="1" stop-color="#191E26"/>
</linearGradient>
<linearGradient id="paint1_linear_283_103" x1="17.5" y1="-3.12688e-06" x2="133.522" y2="59.8429" gradientUnits="userSpaceOnUse">
<stop stop-color="white"/>
<stop offset="1"/>
</linearGradient>
<linearGradient id="paint2_linear_283_103" x1="75.5" y1="54" x2="75.5" y2="138" gradientUnits="userSpaceOnUse">
<stop stop-color="#4E4AF2"/>
<stop offset="1" stop-color="#7FDBFF"/>
</linearGradient>
</defs>
</svg>
