<svg width="165" height="245" viewBox="0 0 165 245" fill="none" xmlns="http://www.w3.org/2000/svg">
<path d="M0 46.6915C0 37.0258 6.91248 28.7432 16.4223 27.0141L141.422 4.28685C153.699 2.05471 165 11.4862 165 23.9643V225C165 236.046 156.046 245 145 245H20C8.95431 245 0 236.046 0 225V46.6915Z" fill="url(#paint0_linear_272_128)" fill-opacity="0.6"/>
<path d="M141.602 5.27051C153.264 3.15027 164 12.11 164 23.9639V225C164 235.493 155.493 244 145 244H20C9.50659 244 1 235.493 1 225V46.6914C1.00006 37.6524 7.36332 29.8863 16.1797 28.0791L16.6016 27.998L141.602 5.27051Z" stroke="url(#paint1_linear_272_128)" stroke-opacity="0.2" stroke-width="2" style="mix-blend-mode:overlay"/>
<g filter="url(#filter0_f_272_128)">
<ellipse cx="55.1429" cy="131.971" rx="25.1429" ry="2.97143" fill="black" fill-opacity="0.1"/>
</g>
<g filter="url(#filter1_f_272_128)">
<ellipse cx="117.943" cy="131.971" rx="26.0571" ry="2.97143" fill="black" fill-opacity="0.1"/>
</g>
<path d="M18.444 172.965V178.724C18.444 179.409 18.6217 179.924 18.977 180.271C19.341 180.618 19.8437 180.791 20.485 180.791C21.135 180.791 21.6377 180.618 21.993 180.271C22.357 179.924 22.539 179.409 22.539 178.724V172.965H24.021V178.698C24.021 179.435 23.8607 180.059 23.54 180.57C23.2193 181.081 22.7903 181.463 22.253 181.714C21.7157 181.965 21.122 182.091 20.472 182.091C19.822 182.091 19.2283 181.965 18.691 181.714C18.1623 181.463 17.742 181.081 17.43 180.57C17.118 180.059 16.962 179.435 16.962 178.698V172.965H18.444ZM28.2506 182.117C27.6873 182.117 27.1803 182.017 26.7296 181.818C26.2876 181.61 25.9366 181.333 25.6766 180.986C25.4166 180.631 25.2779 180.236 25.2606 179.803H26.7946C26.8206 180.106 26.9636 180.362 27.2236 180.57C27.4923 180.769 27.8259 180.869 28.2246 180.869C28.6406 180.869 28.9613 180.791 29.1866 180.635C29.4206 180.47 29.5376 180.262 29.5376 180.011C29.5376 179.742 29.4076 179.543 29.1476 179.413C28.8963 179.283 28.4933 179.14 27.9386 178.984C27.4013 178.837 26.9636 178.694 26.6256 178.555C26.2876 178.416 25.9929 178.204 25.7416 177.918C25.4989 177.632 25.3776 177.255 25.3776 176.787C25.3776 176.406 25.4903 176.059 25.7156 175.747C25.9409 175.426 26.2616 175.175 26.6776 174.993C27.1023 174.811 27.5876 174.72 28.1336 174.72C28.9483 174.72 29.6026 174.928 30.0966 175.344C30.5993 175.751 30.8679 176.31 30.9026 177.021H29.4206C29.3946 176.7 29.2646 176.445 29.0306 176.254C28.7966 176.063 28.4803 175.968 28.0816 175.968C27.6916 175.968 27.3926 176.042 27.1846 176.189C26.9766 176.336 26.8726 176.531 26.8726 176.774C26.8726 176.965 26.9419 177.125 27.0806 177.255C27.2193 177.385 27.3883 177.489 27.5876 177.567C27.7869 177.636 28.0816 177.727 28.4716 177.84C28.9916 177.979 29.4163 178.122 29.7456 178.269C30.0836 178.408 30.3739 178.616 30.6166 178.893C30.8593 179.17 30.9849 179.539 30.9936 179.998C30.9936 180.405 30.8809 180.769 30.6556 181.09C30.4303 181.411 30.1096 181.662 29.6936 181.844C29.2863 182.026 28.8053 182.117 28.2506 182.117ZM38.8599 178.243C38.8599 178.512 38.8426 178.754 38.8079 178.971H33.3349C33.3783 179.543 33.5906 180.002 33.9719 180.349C34.3533 180.696 34.8213 180.869 35.3759 180.869C36.1733 180.869 36.7366 180.535 37.0659 179.868H38.6649C38.4483 180.527 38.0539 181.068 37.4819 181.493C36.9186 181.909 36.2166 182.117 35.3759 182.117C34.6913 182.117 34.0759 181.965 33.5299 181.662C32.9926 181.35 32.5679 180.917 32.2559 180.362C31.9526 179.799 31.8009 179.149 31.8009 178.412C31.8009 177.675 31.9483 177.03 32.2429 176.475C32.5463 175.912 32.9666 175.478 33.5039 175.175C34.0499 174.872 34.6739 174.72 35.3759 174.72C36.0519 174.72 36.6543 174.867 37.1829 175.162C37.7116 175.457 38.1233 175.873 38.4179 176.41C38.7126 176.939 38.8599 177.55 38.8599 178.243ZM37.3129 177.775C37.3043 177.229 37.1093 176.791 36.7279 176.462C36.3466 176.133 35.8743 175.968 35.3109 175.968C34.7996 175.968 34.3619 176.133 33.9979 176.462C33.6339 176.783 33.4173 177.22 33.3479 177.775H37.3129ZM41.5004 175.877C41.717 175.513 42.003 175.231 42.3584 175.032C42.7224 174.824 43.1514 174.72 43.6454 174.72V176.254H43.2684C42.6877 176.254 42.2457 176.401 41.9424 176.696C41.6477 176.991 41.5004 177.502 41.5004 178.23V182H40.0184V174.837H41.5004V175.877ZM50.7616 182.091C50.1549 182.091 49.6089 181.987 49.1236 181.779C48.6382 181.562 48.2569 181.259 47.9796 180.869C47.7022 180.479 47.5636 180.024 47.5636 179.504H49.1496C49.1842 179.894 49.3359 180.215 49.6046 180.466C49.8819 180.717 50.2676 180.843 50.7616 180.843C51.2729 180.843 51.6716 180.722 51.9576 180.479C52.2436 180.228 52.3866 179.907 52.3866 179.517C52.3866 179.214 52.2956 178.967 52.1136 178.776C51.9402 178.585 51.7192 178.438 51.4506 178.334C51.1906 178.23 50.8266 178.117 50.3586 177.996C49.7692 177.84 49.2882 177.684 48.9156 177.528C48.5516 177.363 48.2396 177.112 47.9796 176.774C47.7196 176.436 47.5896 175.985 47.5896 175.422C47.5896 174.902 47.7196 174.447 47.9796 174.057C48.2396 173.667 48.6036 173.368 49.0716 173.16C49.5396 172.952 50.0812 172.848 50.6966 172.848C51.5719 172.848 52.2869 173.069 52.8416 173.511C53.4049 173.944 53.7169 174.542 53.7776 175.305H52.1396C52.1136 174.976 51.9576 174.694 51.6716 174.46C51.3856 174.226 51.0086 174.109 50.5406 174.109C50.1159 174.109 49.7692 174.217 49.5006 174.434C49.2319 174.651 49.0976 174.963 49.0976 175.37C49.0976 175.647 49.1799 175.877 49.3446 176.059C49.5179 176.232 49.7346 176.371 49.9946 176.475C50.2546 176.579 50.6099 176.692 51.0606 176.813C51.6586 176.978 52.1439 177.142 52.5166 177.307C52.8979 177.472 53.2186 177.727 53.4786 178.074C53.7472 178.412 53.8816 178.867 53.8816 179.439C53.8816 179.898 53.7559 180.332 53.5046 180.739C53.2619 181.146 52.9022 181.476 52.4256 181.727C51.9576 181.97 51.4029 182.091 50.7616 182.091ZM61.8953 178.243C61.8953 178.512 61.8779 178.754 61.8433 178.971H56.3703C56.4136 179.543 56.6259 180.002 57.0073 180.349C57.3886 180.696 57.8566 180.869 58.4113 180.869C59.2086 180.869 59.7719 180.535 60.1013 179.868H61.7003C61.4836 180.527 61.0893 181.068 60.5173 181.493C59.9539 181.909 59.2519 182.117 58.4113 182.117C57.7266 182.117 57.1113 181.965 56.5653 181.662C56.0279 181.35 55.6033 180.917 55.2913 180.362C54.9879 179.799 54.8363 179.149 54.8363 178.412C54.8363 177.675 54.9836 177.03 55.2783 176.475C55.5816 175.912 56.0019 175.478 56.5393 175.175C57.0853 174.872 57.7093 174.72 58.4113 174.72C59.0873 174.72 59.6896 174.867 60.2183 175.162C60.7469 175.457 61.1586 175.873 61.4533 176.41C61.7479 176.939 61.8953 177.55 61.8953 178.243ZM60.3483 177.775C60.3396 177.229 60.1446 176.791 59.7633 176.462C59.3819 176.133 58.9096 175.968 58.3463 175.968C57.8349 175.968 57.3973 176.133 57.0333 176.462C56.6693 176.783 56.4526 177.22 56.3833 177.775H60.3483ZM64.7827 176.046V180.011C64.7827 180.28 64.8434 180.475 64.9647 180.596C65.0947 180.709 65.3114 180.765 65.6147 180.765H66.5247V182H65.3547C64.6874 182 64.176 181.844 63.8207 181.532C63.4654 181.22 63.2877 180.713 63.2877 180.011V176.046H62.4427V174.837H63.2877V173.056H64.7827V174.837H66.5247V176.046H64.7827ZM69.3196 176.046V180.011C69.3196 180.28 69.3803 180.475 69.5016 180.596C69.6316 180.709 69.8483 180.765 70.1516 180.765H71.0616V182H69.8916C69.2243 182 68.713 181.844 68.3576 181.532C68.0023 181.22 67.8246 180.713 67.8246 180.011V176.046H66.9796V174.837H67.8246V173.056H69.3196V174.837H71.0616V176.046H69.3196ZM72.8815 173.888C72.6129 173.888 72.3875 173.797 72.2055 173.615C72.0235 173.433 71.9325 173.208 71.9325 172.939C71.9325 172.67 72.0235 172.445 72.2055 172.263C72.3875 172.081 72.6129 171.99 72.8815 171.99C73.1415 171.99 73.3625 172.081 73.5445 172.263C73.7265 172.445 73.8175 172.67 73.8175 172.939C73.8175 173.208 73.7265 173.433 73.5445 173.615C73.3625 173.797 73.1415 173.888 72.8815 173.888ZM73.6095 174.837V182H72.1275V174.837H73.6095ZM78.8693 174.72C79.4326 174.72 79.9353 174.837 80.3773 175.071C80.8279 175.305 81.1789 175.652 81.4303 176.111C81.6816 176.57 81.8073 177.125 81.8073 177.775V182H80.3383V177.996C80.3383 177.355 80.1779 176.865 79.8573 176.527C79.5366 176.18 79.0989 176.007 78.5443 176.007C77.9896 176.007 77.5476 176.18 77.2183 176.527C76.8976 176.865 76.7373 177.355 76.7373 177.996V182H75.2553V174.837H76.7373V175.656C76.9799 175.361 77.2876 175.132 77.6603 174.967C78.0416 174.802 78.4446 174.72 78.8693 174.72ZM86.2837 174.72C86.8383 174.72 87.328 174.833 87.7527 175.058C88.186 175.275 88.524 175.548 88.7667 175.877V174.837H90.2617V182.117C90.2617 182.776 90.123 183.361 89.8457 183.872C89.5683 184.392 89.1653 184.799 88.6367 185.094C88.1167 185.389 87.4927 185.536 86.7647 185.536C85.794 185.536 84.988 185.306 84.3467 184.847C83.7053 184.396 83.3413 183.781 83.2547 183.001H84.7237C84.8363 183.374 85.0747 183.673 85.4387 183.898C85.8113 184.132 86.2533 184.249 86.7647 184.249C87.3627 184.249 87.8437 184.067 88.2077 183.703C88.5803 183.339 88.7667 182.81 88.7667 182.117V180.921C88.5153 181.259 88.173 181.545 87.7397 181.779C87.315 182.004 86.8297 182.117 86.2837 182.117C85.6597 182.117 85.0877 181.961 84.5677 181.649C84.0563 181.328 83.649 180.886 83.3457 180.323C83.051 179.751 82.9037 179.105 82.9037 178.386C82.9037 177.667 83.051 177.03 83.3457 176.475C83.649 175.92 84.0563 175.491 84.5677 175.188C85.0877 174.876 85.6597 174.72 86.2837 174.72ZM88.7667 178.412C88.7667 177.918 88.6627 177.489 88.4547 177.125C88.2553 176.761 87.991 176.484 87.6617 176.293C87.3323 176.102 86.977 176.007 86.5957 176.007C86.2143 176.007 85.859 176.102 85.5297 176.293C85.2003 176.475 84.9317 176.748 84.7237 177.112C84.5243 177.467 84.4247 177.892 84.4247 178.386C84.4247 178.88 84.5243 179.313 84.7237 179.686C84.9317 180.059 85.2003 180.345 85.5297 180.544C85.8677 180.735 86.223 180.83 86.5957 180.83C86.977 180.83 87.3323 180.735 87.6617 180.544C87.991 180.353 88.2553 180.076 88.4547 179.712C88.6627 179.339 88.7667 178.906 88.7667 178.412ZM94.5082 182.117C93.9449 182.117 93.4379 182.017 92.9872 181.818C92.5452 181.61 92.1942 181.333 91.9342 180.986C91.6742 180.631 91.5355 180.236 91.5182 179.803H93.0522C93.0782 180.106 93.2212 180.362 93.4812 180.57C93.7499 180.769 94.0835 180.869 94.4822 180.869C94.8982 180.869 95.2189 180.791 95.4442 180.635C95.6782 180.47 95.7952 180.262 95.7952 180.011C95.7952 179.742 95.6652 179.543 95.4052 179.413C95.1539 179.283 94.7509 179.14 94.1962 178.984C93.6589 178.837 93.2212 178.694 92.8832 178.555C92.5452 178.416 92.2505 178.204 91.9992 177.918C91.7565 177.632 91.6352 177.255 91.6352 176.787C91.6352 176.406 91.7479 176.059 91.9732 175.747C92.1985 175.426 92.5192 175.175 92.9352 174.993C93.3599 174.811 93.8452 174.72 94.3912 174.72C95.2059 174.72 95.8602 174.928 96.3542 175.344C96.8569 175.751 97.1255 176.31 97.1602 177.021H95.6782C95.6522 176.7 95.5222 176.445 95.2882 176.254C95.0542 176.063 94.7379 175.968 94.3392 175.968C93.9492 175.968 93.6502 176.042 93.4422 176.189C93.2342 176.336 93.1302 176.531 93.1302 176.774C93.1302 176.965 93.1995 177.125 93.3382 177.255C93.4769 177.385 93.6459 177.489 93.8452 177.567C94.0445 177.636 94.3392 177.727 94.7292 177.84C95.2492 177.979 95.6739 178.122 96.0032 178.269C96.3412 178.408 96.6315 178.616 96.8742 178.893C97.1169 179.17 97.2425 179.539 97.2512 179.998C97.2512 180.405 97.1385 180.769 96.9132 181.09C96.6879 181.411 96.3672 181.662 95.9512 181.844C95.5439 182.026 95.0629 182.117 94.5082 182.117Z" fill="white" fill-opacity="0.6"/>
<path d="M20.74 204.105C19.97 204.105 19.28 203.98 18.67 203.73C18.06 203.48 17.57 203.11 17.2 202.62C16.84 202.13 16.65 201.54 16.63 200.85H19.36C19.4 201.24 19.535 201.54 19.765 201.75C19.995 201.95 20.295 202.05 20.665 202.05C21.045 202.05 21.345 201.965 21.565 201.795C21.785 201.615 21.895 201.37 21.895 201.06C21.895 200.8 21.805 200.585 21.625 200.415C21.455 200.245 21.24 200.105 20.98 199.995C20.73 199.885 20.37 199.76 19.9 199.62C19.22 199.41 18.665 199.2 18.235 198.99C17.805 198.78 17.435 198.47 17.125 198.06C16.815 197.65 16.66 197.115 16.66 196.455C16.66 195.475 17.015 194.71 17.725 194.16C18.435 193.6 19.36 193.32 20.5 193.32C21.66 193.32 22.595 193.6 23.305 194.16C24.015 194.71 24.395 195.48 24.445 196.47H21.67C21.65 196.13 21.525 195.865 21.295 195.675C21.065 195.475 20.77 195.375 20.41 195.375C20.1 195.375 19.85 195.46 19.66 195.63C19.47 195.79 19.375 196.025 19.375 196.335C19.375 196.675 19.535 196.94 19.855 197.13C20.175 197.32 20.675 197.525 21.355 197.745C22.035 197.975 22.585 198.195 23.005 198.405C23.435 198.615 23.805 198.92 24.115 199.32C24.425 199.72 24.58 200.235 24.58 200.865C24.58 201.465 24.425 202.01 24.115 202.5C23.815 202.99 23.375 203.38 22.795 203.67C22.215 203.96 21.53 204.105 20.74 204.105ZM33.7485 199.68C33.7485 199.92 33.7335 200.17 33.7035 200.43H27.8985C27.9385 200.95 28.1035 201.35 28.3935 201.63C28.6935 201.9 29.0585 202.035 29.4885 202.035C30.1285 202.035 30.5735 201.765 30.8235 201.225H33.5535C33.4135 201.775 33.1585 202.27 32.7885 202.71C32.4285 203.15 31.9735 203.495 31.4235 203.745C30.8735 203.995 30.2585 204.12 29.5785 204.12C28.7585 204.12 28.0285 203.945 27.3885 203.595C26.7485 203.245 26.2485 202.745 25.8885 202.095C25.5285 201.445 25.3485 200.685 25.3485 199.815C25.3485 198.945 25.5235 198.185 25.8735 197.535C26.2335 196.885 26.7335 196.385 27.3735 196.035C28.0135 195.685 28.7485 195.51 29.5785 195.51C30.3885 195.51 31.1085 195.68 31.7385 196.02C32.3685 196.36 32.8585 196.845 33.2085 197.475C33.5685 198.105 33.7485 198.84 33.7485 199.68ZM31.1235 199.005C31.1235 198.565 30.9735 198.215 30.6735 197.955C30.3735 197.695 29.9985 197.565 29.5485 197.565C29.1185 197.565 28.7535 197.69 28.4535 197.94C28.1635 198.19 27.9835 198.545 27.9135 199.005H31.1235ZM39.4667 201.825V204H38.1617C37.2317 204 36.5067 203.775 35.9867 203.325C35.4667 202.865 35.2067 202.12 35.2067 201.09V197.76H34.1867V195.63H35.2067V193.59H37.7717V195.63H39.4517V197.76H37.7717V201.12C37.7717 201.37 37.8317 201.55 37.9517 201.66C38.0717 201.77 38.2717 201.825 38.5517 201.825H39.4667ZM45.2604 201.825V204H43.9554C43.0254 204 42.3004 203.775 41.7804 203.325C41.2604 202.865 41.0004 202.12 41.0004 201.09V197.76H39.9804V195.63H41.0004V193.59H43.5654V195.63H45.2454V197.76H43.5654V201.12C43.5654 201.37 43.6254 201.55 43.7454 201.66C43.8654 201.77 44.0654 201.825 44.3454 201.825H45.2604ZM47.6792 194.76C47.2292 194.76 46.8592 194.63 46.5692 194.37C46.2892 194.1 46.1492 193.77 46.1492 193.38C46.1492 192.98 46.2892 192.65 46.5692 192.39C46.8592 192.12 47.2292 191.985 47.6792 191.985C48.1192 191.985 48.4792 192.12 48.7592 192.39C49.0492 192.65 49.1942 192.98 49.1942 193.38C49.1942 193.77 49.0492 194.1 48.7592 194.37C48.4792 194.63 48.1192 194.76 47.6792 194.76ZM48.9542 195.63V204H46.3892V195.63H48.9542ZM55.613 195.54C56.593 195.54 57.373 195.86 57.953 196.5C58.543 197.13 58.838 198 58.838 199.11V204H56.288V199.455C56.288 198.895 56.143 198.46 55.853 198.15C55.563 197.84 55.173 197.685 54.683 197.685C54.193 197.685 53.803 197.84 53.513 198.15C53.223 198.46 53.078 198.895 53.078 199.455V204H50.513V195.63H53.078V196.74C53.338 196.37 53.688 196.08 54.128 195.87C54.568 195.65 55.063 195.54 55.613 195.54ZM63.5004 195.51C64.0904 195.51 64.6054 195.63 65.0454 195.87C65.4954 196.11 65.8404 196.425 66.0804 196.815V195.63H68.6454V203.985C68.6454 204.755 68.4904 205.45 68.1804 206.07C67.8804 206.7 67.4154 207.2 66.7854 207.57C66.1654 207.94 65.3904 208.125 64.4604 208.125C63.2204 208.125 62.2154 207.83 61.4454 207.24C60.6754 206.66 60.2354 205.87 60.1254 204.87H62.6604C62.7404 205.19 62.9304 205.44 63.2304 205.62C63.5304 205.81 63.9004 205.905 64.3404 205.905C64.8704 205.905 65.2904 205.75 65.6004 205.44C65.9204 205.14 66.0804 204.655 66.0804 203.985V202.8C65.8304 203.19 65.4854 203.51 65.0454 203.76C64.6054 204 64.0904 204.12 63.5004 204.12C62.8104 204.12 62.1854 203.945 61.6254 203.595C61.0654 203.235 60.6204 202.73 60.2904 202.08C59.9704 201.42 59.8104 200.66 59.8104 199.8C59.8104 198.94 59.9704 198.185 60.2904 197.535C60.6204 196.885 61.0654 196.385 61.6254 196.035C62.1854 195.685 62.8104 195.51 63.5004 195.51ZM66.0804 199.815C66.0804 199.175 65.9004 198.67 65.5404 198.3C65.1904 197.93 64.7604 197.745 64.2504 197.745C63.7404 197.745 63.3054 197.93 62.9454 198.3C62.5954 198.66 62.4204 199.16 62.4204 199.8C62.4204 200.44 62.5954 200.95 62.9454 201.33C63.3054 201.7 63.7404 201.885 64.2504 201.885C64.7604 201.885 65.1904 201.7 65.5404 201.33C65.9004 200.96 66.0804 200.455 66.0804 199.815ZM73.6061 204.12C72.8761 204.12 72.2261 203.995 71.6561 203.745C71.0861 203.495 70.6361 203.155 70.3061 202.725C69.9761 202.285 69.7911 201.795 69.7511 201.255H72.2861C72.3161 201.545 72.4511 201.78 72.6911 201.96C72.9311 202.14 73.2261 202.23 73.5761 202.23C73.8961 202.23 74.1411 202.17 74.3111 202.05C74.4911 201.92 74.5811 201.755 74.5811 201.555C74.5811 201.315 74.4561 201.14 74.2061 201.03C73.9561 200.91 73.5511 200.78 72.9911 200.64C72.3911 200.5 71.8911 200.355 71.4911 200.205C71.0911 200.045 70.7461 199.8 70.4561 199.47C70.1661 199.13 70.0211 198.675 70.0211 198.105C70.0211 197.625 70.1511 197.19 70.4111 196.8C70.6811 196.4 71.0711 196.085 71.5811 195.855C72.1011 195.625 72.7161 195.51 73.4261 195.51C74.4761 195.51 75.3011 195.77 75.9011 196.29C76.5111 196.81 76.8611 197.5 76.9511 198.36H74.5811C74.5411 198.07 74.4111 197.84 74.1911 197.67C73.9811 197.5 73.7011 197.415 73.3511 197.415C73.0511 197.415 72.8211 197.475 72.6611 197.595C72.5011 197.705 72.4211 197.86 72.4211 198.06C72.4211 198.3 72.5461 198.48 72.7961 198.6C73.0561 198.72 73.4561 198.84 73.9961 198.96C74.6161 199.12 75.1211 199.28 75.5111 199.44C75.9011 199.59 76.2411 199.84 76.5311 200.19C76.8311 200.53 76.9861 200.99 76.9961 201.57C76.9961 202.06 76.8561 202.5 76.5761 202.89C76.3061 203.27 75.9111 203.57 75.3911 203.79C74.8811 204.01 74.2861 204.12 73.6061 204.12Z" fill="white"/>
<path d="M73.9996 84.5C78.7973 84.5 83.3985 86.2911 86.791 89.4792C90.1835 92.6673 92.0894 96.9913 92.0894 101.5C92.0894 106.009 90.1835 110.333 86.791 113.521C83.3985 116.709 78.7973 118.5 73.9996 118.5C69.2019 118.5 64.6006 116.709 61.2081 113.521C57.8156 110.333 55.9098 106.009 55.9098 101.5C55.9098 96.9913 57.8156 92.6673 61.2081 89.4792C64.6006 86.2911 69.2019 84.5 73.9996 84.5ZM73.9996 93C71.6007 93 69.3001 93.8955 67.6039 95.4896C65.9076 97.0837 64.9547 99.2457 64.9547 101.5C64.9547 103.754 65.9076 105.916 67.6039 107.51C69.3001 109.104 71.6007 110 73.9996 110C76.3984 110 78.699 109.104 80.3953 107.51C82.0915 105.916 83.0445 103.754 83.0445 101.5C83.0445 99.2457 82.0915 97.0837 80.3953 95.4896C78.699 93.8955 76.3984 93 73.9996 93ZM64.9547 144C63.8241 144 62.8743 143.235 62.6934 142.215L61.0201 130.952C58.171 129.89 55.7289 128.445 53.3772 126.745L42.1163 131.037C41.1213 131.378 39.9003 131.037 39.3576 130.102L30.3127 115.398C30.0359 114.96 29.9383 114.442 30.0382 113.941C30.1381 113.441 30.4286 112.991 30.8554 112.677L40.3978 105.623L40.0812 101.5L40.3978 97.25L30.8554 90.3225C30.4286 90.0086 30.1381 89.5593 30.0382 89.0587C29.9383 88.5581 30.0359 88.0404 30.3127 87.6025L39.3576 72.8975C39.9003 71.9625 41.1213 71.58 42.1163 71.9625L53.3772 76.2125C55.7289 74.555 58.171 73.11 61.0201 72.0475L62.6934 60.785C62.8743 59.765 63.8241 59 64.9547 59H83.0445C84.1751 59 85.1248 59.765 85.3057 60.785L86.979 72.0475C89.8281 73.11 92.2703 74.555 94.6219 76.2125L105.883 71.9625C106.878 71.58 108.099 71.9625 108.642 72.8975L117.686 87.6025C118.274 88.5375 118.003 89.685 117.144 90.3225L107.601 97.25L107.918 101.5L107.601 105.75L117.144 112.677C118.003 113.315 118.274 114.463 117.686 115.398L108.642 130.102C108.099 131.037 106.878 131.42 105.883 131.037L94.6219 126.787C92.2703 128.445 89.8281 129.89 86.979 130.952L85.3057 142.215C85.1248 143.235 84.1751 144 83.0445 144H64.9547ZM70.6077 67.5L68.9344 78.5925C63.5075 79.655 58.7137 82.375 55.2314 86.1575L44.3323 81.7375L40.9404 87.2625L50.4828 93.85C48.6738 98.8083 48.6738 104.192 50.4828 109.15L40.8952 115.78L44.2871 121.305L55.2766 116.885C58.7589 120.625 63.5075 123.345 68.8892 124.365L70.5625 135.5H77.4366L79.1099 124.407C84.4917 123.345 89.2402 120.625 92.7225 116.885L103.712 121.305L107.104 115.78L97.5163 109.192C99.3253 104.22 99.3253 98.8225 97.5163 93.85L107.059 87.2625L103.667 81.7375L92.7677 86.1575C89.2141 82.2914 84.3937 79.6451 79.0647 78.635L77.3914 67.5H70.6077Z" fill="url(#paint2_linear_272_128)"/>
<defs>
<filter id="filter0_f_272_128" x="25.4286" y="124.429" width="59.4286" height="15.0857" filterUnits="userSpaceOnUse" color-interpolation-filters="sRGB">
<feFlood flood-opacity="0" result="BackgroundImageFix"/>
<feBlend mode="normal" in="SourceGraphic" in2="BackgroundImageFix" result="shape"/>
<feGaussianBlur stdDeviation="2.28571" result="effect1_foregroundBlur_272_128"/>
</filter>
<filter id="filter1_f_272_128" x="87.3143" y="124.429" width="61.2571" height="15.0857" filterUnits="userSpaceOnUse" color-interpolation-filters="sRGB">
<feFlood flood-opacity="0" result="BackgroundImageFix"/>
<feBlend mode="normal" in="SourceGraphic" in2="BackgroundImageFix" result="shape"/>
<feGaussianBlur stdDeviation="2.28571" result="effect1_foregroundBlur_272_128"/>
</filter>
<linearGradient id="paint0_linear_272_128" x1="46" y1="57.3404" x2="85.8803" y2="174.166" gradientUnits="userSpaceOnUse">
<stop stop-color="#363E51"/>
<stop offset="1" stop-color="#191E26"/>
</linearGradient>
<linearGradient id="paint1_linear_272_128" x1="17.5" y1="-3.43536e-06" x2="137.86" y2="56.5059" gradientUnits="userSpaceOnUse">
<stop stop-color="white"/>
<stop offset="1"/>
</linearGradient>
<linearGradient id="paint2_linear_272_128" x1="74" y1="59" x2="74" y2="144" gradientUnits="userSpaceOnUse">
<stop stop-color="#4E4AF2"/>
<stop offset="1" stop-color="#7FDBFF"/>
</linearGradient>
</defs>
</svg>
