<svg width="402" height="501" viewBox="0 0 402 501" fill="none" xmlns="http://www.w3.org/2000/svg">
<path d="M466.604 43.1886C465.645 39.6483 463.764 36.4258 461.152 33.8502C458.541 31.2746 455.293 29.4381 451.739 28.5282C409.184 17.7883 364.46 19.2856 322.718 32.8478C280.976 46.41 243.912 71.4856 215.796 105.187L192.898 132.76L138.868 120.119C125.723 115.637 111.4 116.064 98.5453 121.32C85.6903 126.575 75.1711 136.305 68.9304 148.711L23.927 229.785C22.3502 232.624 21.4635 235.795 21.3387 239.041C21.2139 242.287 21.8545 245.516 23.2087 248.469C24.5628 251.421 26.5926 254.014 29.134 256.037C31.6753 258.06 34.657 259.456 37.8379 260.114L101.562 273.314C96.2854 289.759 92.5532 306.661 90.4139 323.799C90.0264 326.947 90.3671 330.142 91.4099 333.138C92.4527 336.134 94.1696 338.851 96.4283 341.078L161.068 404.831C163.003 406.741 165.296 408.252 167.816 409.275C170.335 410.299 173.031 410.816 175.75 410.797C176.347 410.793 176.943 410.759 177.55 410.704C195.044 409.009 212.313 405.489 229.075 400.201L242.834 462.298C243.537 465.469 244.975 468.43 247.033 470.942C249.092 473.454 251.712 475.447 254.682 476.76C257.653 478.073 260.89 478.669 264.133 478.501C267.377 478.332 270.535 477.403 273.353 475.789L353.908 429.618C365.242 422.624 374.061 412.21 379.094 399.879C384.126 387.547 385.112 373.936 381.908 361.009L367.666 303.972L393.12 280.239C426.556 251.738 451.213 214.33 464.222 172.365C477.23 130.4 478.056 85.6045 466.604 43.1886ZM73.7972 225.264L105.627 167.893C107.602 163.999 110.991 161.009 115.101 159.534C119.21 158.06 123.727 158.214 127.727 159.964L163.35 168.337L150.001 184.412C137.345 199.795 126.423 216.525 117.432 234.299L73.7972 225.264ZM333.204 393.744L277.185 425.85L268.004 384.4C285.97 375.284 302.689 363.894 317.748 350.511L333.047 336.247L341.64 370.66C342.753 374.909 342.541 379.396 341.034 383.522C339.526 387.647 336.795 391.213 333.204 393.744ZM365.636 249.276L289.821 319.925C259.8 346.252 222.663 363.11 183.082 368.379L132.951 318.935C139.363 279.171 156.269 241.838 181.923 210.787L216.393 169.283C216.968 168.673 217.504 168.028 217.997 167.35L247.468 131.866C269.259 105.765 297.587 85.9147 329.559 74.342C361.53 62.7694 396 59.8889 429.449 65.9947C436.17 99.4597 433.796 134.115 422.572 166.35C411.349 198.585 391.687 227.222 365.636 249.276ZM345.641 121.77C339.498 121.813 333.505 123.676 328.42 127.124C323.336 130.573 319.388 135.451 317.076 141.143C314.764 146.835 314.192 153.085 315.432 159.102C316.673 165.119 319.669 170.633 324.043 174.948C328.417 179.262 333.972 182.182 340.006 183.339C346.04 184.496 352.281 183.837 357.941 181.447C363.6 179.057 368.424 175.042 371.802 169.91C375.179 164.779 376.96 158.761 376.917 152.617C376.889 148.538 376.058 144.504 374.471 140.746C372.884 136.988 370.573 133.58 367.668 130.715C364.764 127.851 361.323 125.586 357.544 124.051C353.764 122.516 349.719 121.741 345.64 121.77L345.641 121.77Z" fill="url(#paint0_linear_60_177)"/>
<defs>
<linearGradient id="paint0_linear_60_177" x1="246.946" y1="22.4594" x2="250.096" y2="478.619" gradientUnits="userSpaceOnUse">
<stop stop-color="#7FDBFF"/>
<stop offset="1" stop-color="#4E4AF2"/>
</linearGradient>
</defs>
</svg>
