<svg width="352" height="63" viewBox="0 0 352 63" fill="none" xmlns="http://www.w3.org/2000/svg">
<g filter="url(#filter0_dd_1_784)">
<rect x="3.5" y="3.53711" width="345" height="54" rx="10" fill="black"/>
<rect x="65" y="3.53711" width="223" height="54" rx="10" fill="black"/>
<g clip-path="url(#clip0_1_784)">
<rect width="24" height="24" transform="translate(80 18.5371)" fill="black"/>
<path d="M101.281 36.9611C100.933 37.7646 100.521 38.5043 100.044 39.1843C99.3939 40.1114 98.8615 40.7531 98.4512 41.1095C97.8151 41.6944 97.1337 41.9939 96.4039 42.011C95.8801 42.011 95.2483 41.8619 94.5129 41.5595C93.7751 41.2585 93.097 41.1095 92.477 41.1095C91.8268 41.1095 91.1294 41.2585 90.3835 41.5595C89.6365 41.8619 89.0347 42.0195 88.5745 42.0351C87.8748 42.0649 87.1772 41.7569 86.481 41.1095C86.0367 40.7219 85.4808 40.0575 84.815 39.1162C84.1006 38.111 83.5133 36.9455 83.0531 35.6166C82.5604 34.1813 82.3133 32.7914 82.3133 31.4458C82.3133 29.9044 82.6464 28.575 83.3135 27.461C83.8378 26.5661 84.5353 25.8602 85.4083 25.342C86.2813 24.8238 87.2245 24.5598 88.2403 24.5429C88.7961 24.5429 89.525 24.7148 90.4308 25.0527C91.334 25.3917 91.914 25.5637 92.1682 25.5637C92.3583 25.5637 93.0026 25.3626 94.0948 24.9618C95.1276 24.5902 95.9993 24.4363 96.7134 24.4969C98.6485 24.6531 100.102 25.4159 101.069 26.7901C99.3385 27.8387 98.4824 29.3074 98.4994 31.1915C98.5151 32.6591 99.0474 33.8803 100.094 34.85C100.568 35.3 101.098 35.6478 101.687 35.8949C101.559 36.2654 101.424 36.6203 101.281 36.9611ZM96.8426 19.4972C96.8426 20.6475 96.4224 21.7215 95.5848 22.7156C94.5739 23.8973 93.3513 24.5802 92.0254 24.4725C92.0085 24.3345 91.9987 24.1892 91.9987 24.0366C91.9987 22.9324 92.4794 21.7506 93.3331 20.7843C93.7593 20.2951 94.3014 19.8883 94.9587 19.5638C95.6146 19.2442 96.235 19.0674 96.8185 19.0371C96.8355 19.1909 96.8426 19.3447 96.8426 19.4972V19.4972Z" fill="white"/>
</g>
<path d="M119.664 33.6699C119.801 36.1797 121.92 37.7715 125.104 37.7715C128.385 37.7715 130.475 36.1016 130.475 33.4453C130.475 31.3945 129.264 30.2129 126.314 29.5879L124.771 29.2656C122.945 28.875 122.223 28.1914 122.223 27.166C122.223 25.877 123.434 25.0762 125.084 25.0762C126.793 25.0762 127.955 25.9453 128.092 27.3613H130.211C130.143 24.9004 128.102 23.2109 125.113 23.2109C122.115 23.2109 119.996 24.8711 119.996 27.2832C119.996 29.3145 121.275 30.623 124.098 31.2188L125.631 31.541C127.516 31.9512 128.258 32.6348 128.258 33.7285C128.258 34.9883 126.979 35.9062 125.191 35.9062C123.316 35.9062 121.988 35.0664 121.793 33.6699H119.664ZM133.316 25.6035C133.99 25.6035 134.527 25.0566 134.527 24.3926C134.527 23.7188 133.99 23.1816 133.316 23.1816C132.643 23.1816 132.096 23.7188 132.096 24.3926C132.096 25.0566 132.643 25.6035 133.316 25.6035ZM132.262 37.5371H134.371V27.2637H132.262V37.5371ZM140.924 41.4043C143.854 41.4043 145.748 39.8027 145.748 37.3516V27.2637H143.697V29.0215H143.658C143.033 27.8301 141.842 27.0977 140.387 27.0977C137.75 27.0977 136.07 29.1289 136.07 32.3613C136.07 35.5645 137.76 37.5762 140.338 37.5762C141.803 37.5762 143.014 36.8438 143.59 35.7305H143.629V37.4199C143.629 38.8262 142.652 39.7637 141.002 39.7637C139.801 39.7637 138.863 39.1973 138.561 38.3379H136.441C136.705 40.1152 138.502 41.4043 140.924 41.4043ZM140.904 35.8281C139.283 35.8281 138.229 34.5195 138.229 32.3711C138.229 30.2324 139.283 28.875 140.904 28.875C142.555 28.875 143.639 30.2617 143.639 32.3711C143.639 34.4902 142.555 35.8281 140.904 35.8281ZM147.838 37.5371H149.947V31.5508C149.947 29.959 150.904 28.9043 152.389 28.9043C153.854 28.9043 154.576 29.7539 154.576 31.2969V37.5371H156.695V30.8867C156.695 28.5332 155.396 27.0879 153.131 27.0879C151.549 27.0879 150.455 27.8105 149.898 28.9824H149.85V27.2637H147.838V37.5371ZM165.24 37.5371V23.4453H163.053V37.5371H165.24ZM167.584 37.5371H169.693V31.5508C169.693 29.959 170.65 28.9043 172.135 28.9043C173.6 28.9043 174.322 29.7539 174.322 31.2969V37.5371H176.441V30.8867C176.441 28.5332 175.143 27.0879 172.877 27.0879C171.295 27.0879 170.201 27.8105 169.645 28.9824H169.596V27.2637H167.584V37.5371ZM196.1 27.2637H194.01L192.135 35.3496H192.086L189.938 27.2637H187.906L185.768 35.3496H185.729L183.854 27.2637H181.744L184.566 37.5371H186.744L188.883 29.8418H188.932L191.09 37.5371H193.287L196.1 27.2637ZM198.512 25.6035C199.186 25.6035 199.723 25.0566 199.723 24.3926C199.723 23.7188 199.186 23.1816 198.512 23.1816C197.838 23.1816 197.291 23.7188 197.291 24.3926C197.291 25.0566 197.838 25.6035 198.512 25.6035ZM197.457 37.5371H199.566V27.2637H197.457V37.5371ZM202.34 24.832V27.2637H200.846V28.9336H202.34V34.832C202.34 36.8145 203.15 37.6055 205.23 37.6055C205.699 37.6055 206.168 37.5664 206.402 37.5078V35.8379C206.266 35.8672 205.924 35.8867 205.709 35.8867C204.85 35.8867 204.459 35.4863 204.459 34.5977V28.9336H206.412V27.2637H204.459V24.832H202.34ZM208.229 37.5371H210.338V31.5996C210.338 29.9785 211.295 28.9043 212.857 28.9043C214.342 28.9043 215.104 29.8125 215.104 31.3262V37.5371H217.223V30.916C217.223 28.5918 215.875 27.0879 213.619 27.0879C212.057 27.0879 210.934 27.7812 210.367 28.9824H210.318V23.4453H208.229V37.5371ZM232.76 37.5371H235.074L229.986 23.4453H227.623L222.535 37.5371H224.811L226.1 33.7285H231.471L232.76 37.5371ZM228.756 25.7891H228.814L230.914 31.9707H226.656L228.756 25.7891ZM241.725 27.0977C240.24 27.0977 239.059 27.8496 238.453 29.0312H238.414V27.2637H236.373V40.9355H238.482V35.8477H238.531C239.117 36.9902 240.289 37.7129 241.764 37.7129C244.342 37.7129 246.051 35.6523 246.051 32.4004C246.051 29.1484 244.332 27.0977 241.725 27.0977ZM241.168 35.9258C239.547 35.9258 238.473 34.5391 238.473 32.4004C238.473 30.2812 239.557 28.875 241.168 28.875C242.838 28.875 243.883 30.252 243.883 32.4004C243.883 34.5586 242.838 35.9258 241.168 35.9258ZM253.033 27.0977C251.549 27.0977 250.367 27.8496 249.762 29.0312H249.723V27.2637H247.682V40.9355H249.791V35.8477H249.84C250.426 36.9902 251.598 37.7129 253.072 37.7129C255.65 37.7129 257.359 35.6523 257.359 32.4004C257.359 29.1484 255.641 27.0977 253.033 27.0977ZM252.477 35.9258C250.855 35.9258 249.781 34.5391 249.781 32.4004C249.781 30.2812 250.865 28.875 252.477 28.875C254.146 28.875 255.191 30.252 255.191 32.4004C255.191 34.5586 254.146 35.9258 252.477 35.9258ZM259.068 37.5371H261.178V23.4453H259.068V37.5371ZM270.152 34.5195C269.869 35.418 268.98 36.0234 267.779 36.0234C266.09 36.0234 265.016 34.8418 265.016 33.0547V32.9277H272.271V32.2051C272.271 29.0898 270.494 27.0781 267.643 27.0781C264.742 27.0781 262.887 29.2266 262.887 32.4492C262.887 35.6914 264.713 37.7324 267.73 37.7324C270.084 37.7324 271.861 36.3945 272.154 34.5195H270.152ZM267.643 28.7773C269.117 28.7773 270.113 29.8809 270.162 31.4531H265.025C265.133 29.9004 266.168 28.7773 267.643 28.7773Z" fill="white"/>
</g>
<defs>
<filter id="filter0_dd_1_784" x="0.5" y="0.537109" width="351" height="62" filterUnits="userSpaceOnUse" color-interpolation-filters="sRGB">
<feFlood flood-opacity="0" result="BackgroundImageFix"/>
<feColorMatrix in="SourceAlpha" type="matrix" values="0 0 0 0 0 0 0 0 0 0 0 0 0 0 0 0 0 0 127 0" result="hardAlpha"/>
<feOffset dy="2"/>
<feGaussianBlur stdDeviation="1.5"/>
<feColorMatrix type="matrix" values="0 0 0 0 0 0 0 0 0 0 0 0 0 0 0 0 0 0 0.168 0"/>
<feBlend mode="normal" in2="BackgroundImageFix" result="effect1_dropShadow_1_784"/>
<feColorMatrix in="SourceAlpha" type="matrix" values="0 0 0 0 0 0 0 0 0 0 0 0 0 0 0 0 0 0 127 0" result="hardAlpha"/>
<feOffset/>
<feGaussianBlur stdDeviation="1.5"/>
<feColorMatrix type="matrix" values="0 0 0 0 0 0 0 0 0 0 0 0 0 0 0 0 0 0 0.084 0"/>
<feBlend mode="normal" in2="effect1_dropShadow_1_784" result="effect2_dropShadow_1_784"/>
<feBlend mode="normal" in="SourceGraphic" in2="effect2_dropShadow_1_784" result="shape"/>
</filter>
<clipPath id="clip0_1_784">
<rect width="24" height="24" fill="white" transform="translate(80 18.5371)"/>
</clipPath>
</defs>
</svg>
