<svg width="141" height="63" viewBox="0 0 141 63" fill="none" xmlns="http://www.w3.org/2000/svg">
<path d="M4.79349 31.5C4.79349 16.7504 16.7504 4.79349 31.5 4.79349H108.935C123.684 4.79349 135.641 16.7504 135.641 31.5C135.641 46.2496 123.684 58.2065 108.935 58.2065H31.5C16.7504 58.2065 4.79349 46.2496 4.79349 31.5Z" fill="#131314"/>
<path d="M4.79349 31.5C4.79349 16.7504 16.7504 4.79349 31.5 4.79349H108.935C123.684 4.79349 135.641 16.7504 135.641 31.5C135.641 46.2496 123.684 58.2065 108.935 58.2065H31.5C16.7504 58.2065 4.79349 46.2496 4.79349 31.5Z" stroke="#8E918F" stroke-width="1.36957"/>
<path fill-rule="evenodd" clip-rule="evenodd" d="M44.7026 31.7802C44.7026 30.9061 44.6242 30.0657 44.4785 29.2589H32.8696V34.0269H39.5032C39.2175 35.5676 38.3491 36.8731 37.0436 37.7471V40.8398H41.0272C43.3579 38.694 44.7026 35.534 44.7026 31.7802Z" fill="#4285F4"/>
<path fill-rule="evenodd" clip-rule="evenodd" d="M32.8696 43.8261C36.1976 43.8261 38.9878 42.7224 41.0272 40.8398L37.0437 37.7471C35.9399 38.4867 34.528 38.9237 32.8696 38.9237C29.6592 38.9237 26.9419 36.7554 25.9726 33.842H21.8546V37.0356C23.8828 41.0639 28.0512 43.8261 32.8696 43.8261Z" fill="#34A853"/>
<path fill-rule="evenodd" clip-rule="evenodd" d="M25.9725 33.842C25.726 33.1024 25.5859 32.3124 25.5859 31.5C25.5859 30.6876 25.726 29.8976 25.9725 29.1581V25.9645H21.8545C21.0197 27.6285 20.5435 29.511 20.5435 31.5C20.5435 33.489 21.0197 35.3715 21.8545 37.0355L25.9725 33.842Z" fill="#FBBC05"/>
<path fill-rule="evenodd" clip-rule="evenodd" d="M32.8696 24.0763C34.6793 24.0763 36.3041 24.6982 37.5815 25.9196L41.1169 22.3843C38.9822 20.3953 36.192 19.1739 32.8696 19.1739C28.0512 19.1739 23.8828 21.9361 21.8546 25.9644L25.9726 29.158C26.9419 26.2446 29.6592 24.0763 32.8696 24.0763Z" fill="#EA4335"/>
<path d="M70.7439 31.5345V36.7399C70.5504 36.9958 70.2477 37.2767 69.8358 37.5825C69.4301 37.8821 68.8902 38.1411 68.2161 38.3596C67.542 38.578 66.7025 38.6872 65.6977 38.6872C64.8426 38.6872 64.0593 38.5437 63.3477 38.2566C62.6362 37.9632 62.0214 37.5357 61.5034 36.974C60.9916 36.4122 60.5952 35.7288 60.3144 34.9236C60.0335 34.1122 59.8931 33.1885 59.8931 32.1524V31.2068C59.8931 30.1769 60.021 29.2594 60.2769 28.4543C60.5391 27.6429 60.9135 26.9563 61.4004 26.3946C61.8872 25.8329 62.4739 25.4084 63.1605 25.1213C63.8533 24.828 64.6366 24.6813 65.5104 24.6813C66.6276 24.6813 67.5514 24.8685 68.2816 25.243C69.0181 25.6113 69.5861 26.1231 69.9856 26.7784C70.385 27.4338 70.6378 28.1828 70.7439 29.0254H68.4408C68.3659 28.551 68.2192 28.1266 68.0008 27.7521C67.7886 27.3776 67.4827 27.0843 67.0833 26.8721C66.6901 26.6536 66.1783 26.5444 65.5479 26.5444C65.0049 26.5444 64.5274 26.6474 64.1154 26.8533C63.7035 27.0593 63.3602 27.362 63.0856 27.7615C62.8172 28.1609 62.6144 28.6478 62.477 29.222C62.3397 29.7962 62.2711 30.4516 62.2711 31.1881V32.1524C62.2711 32.9014 62.3491 33.5661 62.5051 34.1465C62.6674 34.727 62.8983 35.217 63.1979 35.6164C63.5038 36.0159 63.8751 36.3186 64.312 36.5246C64.749 36.7243 65.242 36.8242 65.7913 36.8242C66.3281 36.8242 66.7681 36.7805 67.1114 36.6931C67.4546 36.5995 67.7262 36.4902 67.9259 36.3654C68.1318 36.2343 68.291 36.1095 68.4034 35.9909V33.2852H65.5666V31.5345H70.7439ZM72.6913 33.5474V33.332C72.6913 32.6018 72.7974 31.9246 73.0096 31.3004C73.2218 30.67 73.5276 30.1239 73.9271 29.662C74.3328 29.1939 74.8259 28.8319 75.4063 28.576C75.993 28.3139 76.6546 28.1828 77.3911 28.1828C78.1339 28.1828 78.7955 28.3139 79.3759 28.576C79.9626 28.8319 80.4588 29.1939 80.8645 29.662C81.2702 30.1239 81.5792 30.67 81.7914 31.3004C82.0036 31.9246 82.1097 32.6018 82.1097 33.332V33.5474C82.1097 34.2776 82.0036 34.9548 81.7914 35.579C81.5792 36.2031 81.2702 36.7493 80.8645 37.2174C80.4588 37.6792 79.9657 38.0412 79.3853 38.3034C78.8048 38.5593 78.1463 38.6872 77.4099 38.6872C76.6671 38.6872 76.0024 38.5593 75.4157 38.3034C74.8352 38.0412 74.3422 37.6792 73.9365 37.2174C73.5308 36.7493 73.2218 36.2031 73.0096 35.579C72.7974 34.9548 72.6913 34.2776 72.6913 33.5474ZM74.9476 33.332V33.5474C74.9476 34.003 74.9944 34.4337 75.088 34.8394C75.1816 35.2451 75.3283 35.6008 75.528 35.9067C75.7278 36.2125 75.9837 36.4528 76.2957 36.6275C76.6078 36.8023 76.9792 36.8897 77.4099 36.8897C77.828 36.8897 78.19 36.8023 78.4959 36.6275C78.8079 36.4528 79.0639 36.2125 79.2636 35.9067C79.4633 35.6008 79.61 35.2451 79.7036 34.8394C79.8035 34.4337 79.8534 34.003 79.8534 33.5474V33.332C79.8534 32.8826 79.8035 32.4582 79.7036 32.0588C79.61 31.6531 79.4602 31.2942 79.2542 30.9821C79.0545 30.67 78.7986 30.4266 78.4865 30.2518C78.1807 30.0708 77.8155 29.9803 77.3911 29.9803C76.9667 29.9803 76.5985 30.0708 76.2864 30.2518C75.9805 30.4266 75.7278 30.67 75.528 30.9821C75.3283 31.2942 75.1816 31.6531 75.088 32.0588C74.9944 32.4582 74.9476 32.8826 74.9476 33.332ZM83.5702 33.5474V33.332C83.5702 32.6018 83.6763 31.9246 83.8885 31.3004C84.1007 30.67 84.4066 30.1239 84.806 29.662C85.2117 29.1939 85.7048 28.8319 86.2853 28.576C86.872 28.3139 87.5336 28.1828 88.2701 28.1828C89.0128 28.1828 89.6744 28.3139 90.2549 28.576C90.8416 28.8319 91.3378 29.1939 91.7435 29.662C92.1492 30.1239 92.4581 30.67 92.6703 31.3004C92.8826 31.9246 92.9887 32.6018 92.9887 33.332V33.5474C92.9887 34.2776 92.8826 34.9548 92.6703 35.579C92.4581 36.2031 92.1492 36.7493 91.7435 37.2174C91.3378 37.6792 90.8447 38.0412 90.2642 38.3034C89.6838 38.5593 89.0253 38.6872 88.2888 38.6872C87.5461 38.6872 86.8813 38.5593 86.2946 38.3034C85.7142 38.0412 85.2211 37.6792 84.8154 37.2174C84.4097 36.7493 84.1007 36.2031 83.8885 35.579C83.6763 34.9548 83.5702 34.2776 83.5702 33.5474ZM85.8265 33.332V33.5474C85.8265 34.003 85.8733 34.4337 85.967 34.8394C86.0606 35.2451 86.2073 35.6008 86.407 35.9067C86.6067 36.2125 86.8626 36.4528 87.1747 36.6275C87.4868 36.8023 87.8581 36.8897 88.2888 36.8897C88.707 36.8897 89.069 36.8023 89.3748 36.6275C89.6869 36.4528 89.9428 36.2125 90.1425 35.9067C90.3423 35.6008 90.4889 35.2451 90.5826 34.8394C90.6824 34.4337 90.7324 34.003 90.7324 33.5474V33.332C90.7324 32.8826 90.6824 32.4582 90.5826 32.0588C90.4889 31.6531 90.3391 31.2942 90.1332 30.9821C89.9334 30.67 89.6775 30.4266 89.3655 30.2518C89.0596 30.0708 88.6945 29.9803 88.2701 29.9803C87.8457 29.9803 87.4774 30.0708 87.1653 30.2518C86.8595 30.4266 86.6067 30.67 86.407 30.9821C86.2073 31.2942 86.0606 31.6531 85.967 32.0588C85.8733 32.4582 85.8265 32.8826 85.8265 33.332ZM101.368 28.37H103.418V38.2191C103.418 39.1304 103.225 39.9043 102.838 40.541C102.451 41.1776 101.911 41.6613 101.218 41.9921C100.525 42.3292 99.7232 42.4977 98.812 42.4977C98.425 42.4977 97.9943 42.4415 97.52 42.3292C97.0519 42.2168 96.5962 42.0358 96.1531 41.7862C95.7162 41.5427 95.3511 41.2213 95.0577 40.8218L96.1157 39.4924C96.4777 39.9231 96.8771 40.2383 97.314 40.438C97.7509 40.6377 98.2097 40.7376 98.6903 40.7376C99.2083 40.7376 99.6483 40.6408 100.01 40.4474C100.379 40.2601 100.663 39.9824 100.862 39.6141C101.062 39.2459 101.162 38.7965 101.162 38.2659V30.6638L101.368 28.37ZM94.4866 33.5474V33.3508C94.4866 32.583 94.5802 31.884 94.7675 31.2536C94.9547 30.617 95.2231 30.0708 95.5726 29.6152C95.9222 29.1533 96.3466 28.8007 96.8459 28.5573C97.3452 28.3076 97.9101 28.1828 98.5405 28.1828C99.1958 28.1828 99.7545 28.3014 100.216 28.5386C100.684 28.7757 101.075 29.1159 101.387 29.559C101.699 29.9959 101.942 30.5202 102.117 31.1319C102.298 31.7373 102.432 32.4114 102.519 33.1541V33.7814C102.438 34.5054 102.301 35.167 102.108 35.7662C101.914 36.3654 101.658 36.8834 101.34 37.3204C101.021 37.7573 100.628 38.0943 100.16 38.3315C99.6983 38.5687 99.1521 38.6872 98.5218 38.6872C97.9038 38.6872 97.3452 38.5593 96.8459 38.3034C96.3528 38.0475 95.9284 37.6886 95.5726 37.2267C95.2231 36.7649 94.9547 36.2218 94.7675 35.5977C94.5802 34.9673 94.4866 34.2839 94.4866 33.5474ZM96.7429 33.3508V33.5474C96.7429 34.0092 96.7866 34.4399 96.874 34.8394C96.9676 35.2388 97.1081 35.5915 97.2953 35.8973C97.4888 36.1969 97.7322 36.4341 98.0256 36.6088C98.3251 36.7773 98.6778 36.8616 99.0835 36.8616C99.614 36.8616 100.048 36.7493 100.385 36.5246C100.728 36.2999 100.99 35.9972 101.171 35.6164C101.359 35.2294 101.49 34.7988 101.564 34.3244V32.6299C101.527 32.2616 101.449 31.9183 101.33 31.6C101.218 31.2817 101.065 31.0039 100.872 30.7668C100.678 30.5234 100.435 30.3361 100.141 30.205C99.8481 30.0677 99.5017 29.9991 99.1022 29.9991C98.6965 29.9991 98.3439 30.0864 98.0443 30.2612C97.7447 30.436 97.4981 30.6763 97.3047 30.9821C97.1174 31.2879 96.977 31.6437 96.8834 32.0494C96.7897 32.4551 96.7429 32.8889 96.7429 33.3508ZM108.174 24.1196V38.5H105.909V24.1196H108.174ZM115.112 38.6872C114.363 38.6872 113.685 38.5655 113.08 38.3221C112.481 38.0725 111.969 37.7261 111.545 37.2829C111.126 36.8398 110.805 36.3186 110.58 35.7194C110.356 35.1202 110.243 34.4742 110.243 33.7814V33.4069C110.243 32.6143 110.359 31.8965 110.59 31.2536C110.821 30.6107 111.142 30.0615 111.554 29.6059C111.966 29.144 112.453 28.7913 113.015 28.5479C113.576 28.3045 114.185 28.1828 114.84 28.1828C115.564 28.1828 116.198 28.3045 116.741 28.5479C117.284 28.7913 117.733 29.1346 118.089 29.5778C118.451 30.0147 118.719 30.5358 118.894 31.1413C119.075 31.7467 119.166 32.4145 119.166 33.1448V34.1091H111.339V32.4894H116.937V32.3115C116.925 31.9058 116.844 31.5251 116.694 31.1693C116.55 30.8136 116.329 30.5265 116.029 30.308C115.73 30.0896 115.33 29.9803 114.831 29.9803C114.456 29.9803 114.122 30.0615 113.829 30.2238C113.542 30.3798 113.302 30.6076 113.108 30.9072C112.915 31.2068 112.765 31.5688 112.659 31.9932C112.559 32.4114 112.509 32.8826 112.509 33.4069V33.7814C112.509 34.2246 112.568 34.6365 112.687 35.0172C112.812 35.3917 112.993 35.7194 113.23 36.0003C113.467 36.2811 113.754 36.5027 114.091 36.665C114.428 36.821 114.812 36.8991 115.243 36.8991C115.786 36.8991 116.269 36.7898 116.694 36.5714C117.118 36.3529 117.487 36.044 117.799 35.6445L118.988 36.7961C118.769 37.1144 118.485 37.4202 118.136 37.7136C117.786 38.0007 117.359 38.2347 116.853 38.4157C116.354 38.5967 115.773 38.6872 115.112 38.6872Z" fill="#E3E3E3"/>
</svg>
